<svg id="Layer_1" data-name="Layer 1" xmlns="http://www.w3.org/2000/svg" width="45" height="45" viewBox="0 0 45 45"><title>BH-circle-small-01-01-01</title><path d="M22.5,42A19.5,19.5,0,1,1,41.9541,22.5,19.4992,19.4992,0,0,1,22.5,42Z" fill="#f2b646"/><path d="M22.5,5.5a17,17,0,1,1-16.9538,17A16.9962,16.9962,0,0,1,22.5,5.5m0-5a22,22,0,1,0,21.9538,22A21.9769,21.9769,0,0,0,22.5.5Z" fill="#f7d28d"/><path d="M19.6685,21.998a3.647,3.647,0,0,1,2.0454,3.5108,3.6927,3.6927,0,0,1-1.4209,3.1543A6.0529,6.0529,0,0,1,16.5669,29.73H10.9893a.2462.2462,0,0,1-.1831-.0752.25.25,0,0,1-.0752-.1836V14.9126a.2576.2576,0,0,1,.2583-.2588H16.395q5.1036,0,5.104,4.1353a3.1907,3.1907,0,0,1-1.83,3.08Q19.5388,21.9331,19.6685,21.998Zm-5.9009-4.63v3.3594a.095.095,0,0,0,.1074.1079h2.52a2.3632,2.3632,0,0,0,1.5718-.4737,1.6034,1.6034,0,0,0,.56-1.2925,1.6588,1.6588,0,0,0-.56-1.3242A2.3271,2.3271,0,0,0,16.395,17.26h-2.52A.0951.0951,0,0,0,13.7676,17.3677Zm4.35,9.228a2.0017,2.0017,0,0,0,0-2.7773,2.2607,2.2607,0,0,0-1.5723-.5069h-2.67a.0953.0953,0,0,0-.1074.1084v3.5742a.0946.0946,0,0,0,.1074.1075h2.6919A2.2269,2.2269,0,0,0,18.1177,26.5957Z" fill="#fff"/><path d="M31.459,14.73a.2506.2506,0,0,1,.1836-.0757h2.52a.2593.2593,0,0,1,.2588.2588V29.4707a.2491.2491,0,0,1-.0762.1836.246.246,0,0,1-.1826.0752h-2.52a.2482.2482,0,0,1-.1836-.0752.2521.2521,0,0,1-.0752-.1836V23.5273a.0948.0948,0,0,0-.1074-.1074h-4.76a.0944.0944,0,0,0-.1074.1074v5.9434a.2521.2521,0,0,1-.0752.1836.2482.2482,0,0,1-.1836.0752h-2.52a.2481.2481,0,0,1-.1836-.0752.2521.2521,0,0,1-.0752-.1836V14.9126a.2576.2576,0,0,1,.2588-.2588h2.52a.2576.2576,0,0,1,.2588.2588v5.793a.0948.0948,0,0,0,.1074.1079h4.76a.0952.0952,0,0,0,.1074-.1079v-5.793A.251.251,0,0,1,31.459,14.73Z" fill="#fff"/></svg>