<svg id="Layer_1" data-name="Layer 1" xmlns="http://www.w3.org/2000/svg" width="45" height="45" viewBox="0 0 45 45"><title>DA-circle-small</title><path d="M22.5,42A19.5,19.5,0,1,1,41.9541,22.5,19.4992,19.4992,0,0,1,22.5,42Z" fill="#f2b646"/><path d="M22.5,5.5a17,17,0,1,1-16.9538,17A16.9962,16.9962,0,0,1,22.5,5.5m0-5a22,22,0,1,0,21.9538,22A21.9769,21.9769,0,0,0,22.5.5Z" fill="#f7d28d"/><path d="M10.9712,29.2529a.2417.2417,0,0,1-.0737-.1787V14.8779a.2516.2516,0,0,1,.2524-.2519H16.4a6.4448,6.4448,0,0,1,2.7612.5566,4.3,4.3,0,0,1,1.8374,1.5645,4.2,4.2,0,0,1,.6514,2.331V24.874a4.2008,4.2008,0,0,1-.6514,2.3311A4.3,4.3,0,0,1,19.1611,28.77a6.4374,6.4374,0,0,1-2.7612.5567H11.15A.2429.2429,0,0,1,10.9712,29.2529Zm2.9927-2.4677h2.541a2.0245,2.0245,0,0,0,1.5644-.6514,2.5476,2.5476,0,0,0,.6192-1.7422V19.561a2.4744,2.4744,0,0,0-.5982-1.7426,2.0758,2.0758,0,0,0-1.6064-.6514h-2.52a.0927.0927,0,0,0-.105.105V26.68A.0929.0929,0,0,0,13.9639,26.7852Z" fill="#fff"/><path d="M31.6445,29.1162l-.63-2.0576c-.0283-.0566-.0625-.084-.1044-.084H25.7441c-.042,0-.0771.0274-.1054.084L25.03,29.1162a.2646.2646,0,0,1-.2735.21H22.09a.2353.2353,0,0,1-.1889-.0733.23.23,0,0,1-.021-.2207L26.416,14.8359a.2639.2639,0,0,1,.2735-.21h3.2968a.2636.2636,0,0,1,.2725.21l4.5361,14.1963a.2363.2363,0,0,1,.0215.1045c0,.126-.0771.1895-.2314.1895H31.918A.2646.2646,0,0,1,31.6445,29.1162Zm-5.166-4.4307h3.6963c.084,0,.1123-.0419.084-.1259l-1.89-6.2373c-.0146-.0557-.0351-.0806-.0634-.0738s-.0489.0318-.0625.0738L26.3945,24.56C26.3809,24.6436,26.4092,24.6855,26.4785,24.6855Z" fill="#fff"/></svg>