<svg id="Layer_1" data-name="Layer 1" xmlns="http://www.w3.org/2000/svg" width="45" height="45" viewBox="0 0 45 45"><title>DY-circle-small</title><path d="M22.5,42A19.5,19.5,0,1,1,41.9541,22.5,19.4992,19.4992,0,0,1,22.5,42Z" fill="#f2b646"/><path d="M22.5,5.5a17,17,0,1,1-16.9538,17A16.9962,16.9962,0,0,1,22.5,5.5m0-5a22,22,0,1,0,21.9538,22A21.9769,21.9769,0,0,0,22.5.5Z" fill="#f7d28d"/><path d="M11.9849,30.5215a.2414.2414,0,0,1-.0738-.1787V16.147a.252.252,0,0,1,.2525-.252h5.25a6.4448,6.4448,0,0,1,2.7612.5567,4.3,4.3,0,0,1,1.8374,1.5644,4.2008,4.2008,0,0,1,.6514,2.3311v5.7954a4.2,4.2,0,0,1-.6514,2.331,4.3,4.3,0,0,1-1.8374,1.5645,6.4374,6.4374,0,0,1-2.7612.5566h-5.25A.2432.2432,0,0,1,11.9849,30.5215Zm2.9926-2.4678h2.5411a2.0245,2.0245,0,0,0,1.5644-.6514,2.5471,2.5471,0,0,0,.6191-1.7421V20.83a2.475,2.475,0,0,0-.5981-1.7427,2.076,2.076,0,0,0-1.6064-.6514h-2.52a.0927.0927,0,0,0-.1049.105v9.4072A.0928.0928,0,0,0,14.9775,28.0537Z" fill="#fff"/><path d="M27.1885,30.5a.242.242,0,0,1-.0723-.1787V25.0088a.2979.2979,0,0,0-.0215-.126l-4.3261-8.6933a.3168.3168,0,0,1-.042-.1265c0-.1118.0766-.168.2309-.168h2.647a.2977.2977,0,0,1,.293.189l2.625,5.5864c.0429.084.0839.084.1269,0l2.625-5.5864a.2944.2944,0,0,1,.293-.189h2.6875a.2355.2355,0,0,1,.2012.0738.2291.2291,0,0,1-.0118.2207l-4.3672,8.6933a.3.3,0,0,0-.0214.126v5.3125a.2438.2438,0,0,1-.0743.1787.2372.2372,0,0,1-.1777.0732H27.3682A.2416.2416,0,0,1,27.1885,30.5Z" fill="#fff"/></svg>