<?xml version="1.0" encoding="utf-8"?>
<!-- Generator: Adobe Illustrator 24.1.0, SVG Export Plug-In . SVG Version: 6.00 Build 0)  -->
<svg version="1.1" xmlns="http://www.w3.org/2000/svg" xmlns:xlink="http://www.w3.org/1999/xlink" x="0px" y="0px"
	 viewBox="0 0 1920 1080" style="enable-background:new 0 0 1920 1080;" xml:space="preserve">
<style type="text/css">
	.st0{display:none;}
	.st1{fill:none;stroke:#000000;stroke-width:4;stroke-miterlimit:10;}
	.st2{fill:#F8CA08;}
	.st3{fill:#F63434;}
	.st4{fill:#6B285B;}
	.st5{fill:#DA0B3A;}
	.st6{fill:#8CA52C;stroke:#FFFFFF;stroke-miterlimit:10;}
	.st7{fill:#8BA53C;stroke:#FFFFFF;stroke-miterlimit:10;}
	.st8{fill:#FFB625;stroke:#FFFFFF;stroke-miterlimit:10;}
	.st9{fill:#FFFFFF;stroke:#FFFFFF;stroke-miterlimit:10;}
	.st10{fill:none;stroke:#85CDDD;stroke-width:3;stroke-miterlimit:10;}
	.st11{fill:#FDBE20;}
	.st12{fill:#FBBC24;}
	.st13{fill:#FFFFFF;}
	.st14{fill:#FBBF28;}
	.st15{fill:#FFDB35;stroke:#FFFFFF;stroke-miterlimit:10;}
	.st16{fill:#E50D47;stroke:#FFFFFF;stroke-miterlimit:10;}
	.st17{fill:#FEEA81;stroke:#FFFFFF;stroke-miterlimit:10;}
	.st18{fill:#76487F;stroke:#FFFFFF;stroke-miterlimit:10;}
	.st19{fill:#764880;stroke:#FFFFFF;stroke-width:1.3033;stroke-miterlimit:10;}
	.st20{fill:#764880;stroke:#FFFFFF;stroke-miterlimit:10;}
</style>
<g id="Layer_1" class="st0">
	
		<image style="display:inline;overflow:visible;" width="1912" height="1238" xlink:href="../../../private/var/folders/4m/qx10p7vd6gq7s1y2gjkzk6l80000gn/T/TemporaryItems/(A Document Being Saved By screencaptureui)/Screen Shot 2020-04-01 at 9.37.23 AM.png"  transform="matrix(0.5 0 0 0.5 482 230)">
	</image>
</g>
<g id="Layer_2">
	<path class="st1" d="M1437.7,244.52l-15.29,20.96l-137.6,167.94c0,0-93.6,95.16-114.13,99.06l-11.74,11.06
		c0,0-77.02,42-98.69,50.51l-10.38,3.31l-66.04,7.1L968,635.02l-25.46,10.13"/>
</g>
<g id="Layer_3">
	<path class="st2" d="M1421.11,255.59l52.24,140.83c0,0-70.98,61.9-76.66,80.64c0,0-36.91,54.52-39.75,61.33
		c0,0-47.7-113.58-56.79-126.64L1421.11,255.59z"/>
	<path class="st3" d="M1170.68,530.48l15.9,153.9c0,0,0.57-15.9,45.43-34.64c0,0,33.07-16.04,40.82-27.53l16.48-15.48l-4.49-175.3
		C1284.81,431.42,1179.65,534.39,1170.68,530.48z"/>
	<path class="st4" d="M1060.25,594.05l98.69-50.51c0,0-14.5,132.36-19.64,165.1c0,0-22.45,3.74-29,14.03c0,0-12.16,20.11-28.06,15.9
		c0,0-14.03,0.94-12.16,7.95L1060.25,594.05z"/>
	<path class="st5" d="M968,632.02l15.83-30.57l66.04-7.1c0,0-9.96,40.16-7.44,49.2l-13.57,107.08l-22.87,4.02
		c0,0-41.47-12.06-45.49-10.31l11.31-72.39L968,632.02z"/>
</g>
<g id="Layer_4">
	<path class="st6" d="M1363.39,452.88l-2.01,8.53c0,0,0.5,32.1,11.28,29.09c0,0,9.78-2.76,4.26-27.83c0,0-2.76-15.55,0.75-16.55
		c0,0,2.51,22.82,7.52,22.57c0,0,14.04-15.55,13.79-25.08c0,0,7.02,2.26,8.28-3.26l0.98-9.33l3.28-31.05l7.27,29.34l1-13.29
		l-7.77-36.11l2.58-22.75l-4.72-12.81l3.37-6.4c0,0-5.39,1.69-9.77-6.4l-2.7,10.79c0,0,13.15,24.6,10.45,30l0.13,21.91l-6.38-4.67
		l3.42-4.82c0,0-5.14,0.31-8.56-2.49c0,0-3.11,10.74-1.09,12.6c0,0,11.2,7.62,10.74,11.67c0,0,2.34,36.84-8.07,24.2
		c0,0-4.02-6.99-3.72-15.47c0,0-6.39-15.32-9.22-15.61l-2.97,11.3c0,0,10.41,22.9,7.88,29.44c0,0-3.42,17.85-6.54,17.99
		c0,0-4.31,4.02-7.14-17.4l-1.64-9.67c0,0-8.03,11.45-4.31,44.76c-0.15-0.89-2.08,14.13-8.03-0.89L1363.39,452.88z"/>
	<path class="st7" d="M1380.74,391.58c0,0,0.4,6.13,3.36,4.55c0,0,2.97-5.14,2.67-6.62c0,0,4.74-0.99,3.95-6.72
		c0.1-0.59-1.68-4.05-2.37-4.05c0,0-1.68,1.98-0.2,6.23c0,0,0.69,1.98-1.98,0.79c0,0-2.47-3.06-1.68,4.35c0,0,0.89,4.35-2.17,0.99
		C1382.32,391.08,1380.83,389.7,1380.74,391.58z"/>
	<path class="st7" d="M1380.98,374.34c0,0,4.26,1.28,4.05-5.12c0,0,4.9-28.35,9.38-30.7
		C1394.41,338.53,1380.34,363.47,1380.98,374.34z"/>
</g>
<g id="Layer_5">
	<path class="st8" d="M1221.33,520.85c0,0-4.45,1.52-4.9,3.44c0,0,0.56-7.11,7.22-6.65c0,0,0.45-7.78,4.4-5.08
		c0,0,0.45-9.47,3.5-4.17c0,0,1.35-5.75,3.95-0.45c0,0,2.26-5.53,4.51-5.98c0,0,1.69,0,0.45,2.14c0,0-2.03,3.61-1.58,7.67
		l2.59,43.31l31.81-25.94c0,0,2.93-3.95,1.47-6.54c0,0,2.48-0.34,3.95,2.48l-0.45,6.32l2.93-1.8l-0.79,5.64l-0.45,7.67l-1.47,17.6
		c0,0-2.35-4.55-6.5-0.82l-27.37,18.87l2.07,43.34c0,0,1.45,2.07,5.6-0.21c0,0-0.62,4.3-4.44,5.07c0,0-1.11,1.88-3.06,1.6
		l-1.46-0.69l-0.14,5.69c0,0-1.39,2.29-3.06,1.18l-0.69-1.25l-0.21,1.18c0,0-0.28,7.22-3.4,3.13l-0.97-2.01c0,0-0.35,2.01-1.67,2.22
		c0,0-3.33,4.24-2.99-2.71c0,0-5.28,5.76-8.61,3.26c0,0,8.35-5.97,5.13-21.65l-2-25.98l-30.13,16.6c0,0-2.61,4.15-1.69,6.15
		c0,0-2-6-0.92-7.07c0,0-2.92-0.61-0.77-4.15c0,0-3.69-2-0.31-5.84c0,0-2-4,1.54-6.15c0,0-2.77-7.53-0.92-8.92
		c0,0,1.23,6.15,5.84,1.38l25.83-17.07L1221.33,520.85z"/>
</g>
<g id="Layer_6">
	<path class="st9" d="M1224.4,521.39c0,0,3.72-2,3.43-2c-0.29,0,2.29-5.43,5.15-5.15h2.57l3.15,45.18c0,0,2.86,2,10.29-6.58
		l21.49-17.61c0,0,2.85-0.22,3.73,3.51c0,0,7.46-0.99,1.43,7.13c0,0,1.54,6.15-3.51,7.46l-31.39,23.93l2.52,44.89l-3.18,4.61
		c0,0-1.21,7.24-5.27,2.63l-3.95,1.32c0,0-0.44-6.48-0.44-7.57l-1.54-36.99c0,0-2.09-2.85-7.79,1.54l-26.67,14.27v-3.73
		c0,0-4.39-1.87,0.22-6.7v-3.29l31.28-18.55L1224.4,521.39z"/>
</g>
<g id="Layer_10">
	<g>
		
			<image style="overflow:visible;" width="141" height="180" xlink:href="A9F1570E1CE4D7A7.png"  transform="matrix(1 0 0 1 1031 566)">
		</image>
	</g>
</g>
<g id="Layer_9">
	<polygon class="st10" points="1083.94,689.68 1103.92,611.45 1120.11,668.23 	"/>
	<polygon class="st10" points="1084.42,640.94 1121.43,624.12 1102.71,704.03 	"/>
</g>
<g id="Layer_7">
	<path class="st11" d="M1229.77,524.01l-2.08,8.8c0,0,2.66,3.59,3.59,3.47c0,0,3.12-7.18,2.43-9.84L1229.77,524.01z"/>
	<polygon class="st11" points="1229.89,539.29 1226.88,539.05 1226.41,543.22 1227.69,543.22 	"/>
	<polygon class="st11" points="1232.2,538.24 1232.32,536.39 1235.56,532.69 1236.02,537.43 	"/>
	<path class="st11" d="M1229.42,553.41l1.27-7.87l4.17,1.74c0,0-0.69,9.14-1.85,9.14h-1.16
		C1233.01,556.41,1229.42,553.41,1229.42,553.41z"/>
	<path class="st11" d="M1261.85,551.29l3.44-7.7l5.92-0.36c0,0-2.37,8.06-5.57,8.41C1265.64,551.64,1262.56,552.12,1261.85,551.29z"
		/>
	<path class="st11" d="M1259.37,550.1c0,0-2.73-1.42-1.9-3.44l3.32-1.66C1260.79,545.01,1260.79,549.51,1259.37,550.1z"/>
	<path class="st11" d="M1257.35,560.29c0,0,0.95-4.62,1.9-4.98l0.95,3.2C1260.19,558.52,1258.65,560.65,1257.35,560.29z"/>
	<path class="st11" d="M1245.38,564.44l5.81-9.6c0,0,3.44-0.83,4.38,0.36l-5.33,8.65C1250.24,563.85,1248.11,565.39,1245.38,564.44z
		"/>
	<path class="st11" d="M1194.91,594.77c0,0,3.67-6.4,4.5-6.64l5.21,0.36l-3.91,7.46C1200.71,595.96,1195.38,595.6,1194.91,594.77z"
		/>
	<polygon class="st11" points="1205.45,582.81 1208.89,580.91 1208.06,585.41 	"/>
	<path class="st11" d="M1209.01,586.48c0,0,5.33-5.92,5.69-5.92s4.38-0.59,4.62,0c0.24,0.59-2.84,5.81-3.91,6.4
		C1214.34,587.55,1209.01,586.48,1209.01,586.48z"/>
	<path class="st11" d="M1232.78,598.21c0,0,2.09-6.51,2.58-6.64c0,0,3.2,1.84,3.32,2.34c0.12,0.49-0.74,8.85-1.84,9.71
		C1236.83,603.62,1233.15,599.93,1232.78,598.21z"/>
	<path class="st11" d="M1235.42,607.2c0,0-3.63-1.26-3.91-0.84l-0.42,5.58C1231.1,611.95,1236.26,608.46,1235.42,607.2z"/>
	<path class="st11" d="M1237.57,606.25c0,0,3.16-4.69,3.64-4.69l0.29,4.5C1241.49,606.06,1239.01,607.3,1237.57,606.25z"/>
	<path class="st11" d="M1234.7,622.23c0,0,1.44-7.94,1.91-8.52c0,0,3.45,1.91,3.64,2.49c0,0-1.63,8.23-2.39,8.9
		C1237.86,625.11,1234.7,623,1234.7,622.23z"/>
	<path class="st12" d="M1233.3,559.12l10.36,4.39c0,0,0,2.99-2.11,5.97l-6.67,17.57c0,0-2.2-0.09-3.51-1.32l-9.66-5.45
		c0,0,0.18-3.51,1.76-4.83L1233.3,559.12z"/>
	<polygon class="st13" points="1233.74,563.07 1225.13,578.53 1233.83,582.39 1240.77,565.79 	"/>
</g>
<g id="Layer_8">
	<path class="st14" d="M1233.35,572.23c0,0-3.09-4.34,0.6-7.05C1233.94,565.19,1236.76,568.6,1233.35,572.23z"/>
	<path class="st14" d="M1231.99,573.32c0,0-3.9,0-4.93,4.12C1227.06,577.44,1233.07,578.58,1231.99,573.32z"/>
	<path class="st14" d="M1234.7,574.35c0,0-4.23,2.98-0.54,5.31C1234.16,579.66,1237.47,576.35,1234.7,574.35z"/>
	<path class="st14" d="M1235.24,572.88c0,0,0.38-5.42,3.79-5.75C1239.04,567.14,1239.31,573.1,1235.24,572.88z"/>
</g>
<g id="Layer_12">
	<path class="st15" d="M971.72,668.6c0,0,3.52-21.85,23.35-26.37l0.5-3.01c0,0,24.11-6.53,26.11,24.86c0,0,3.52,67.8-30.89,60.77
		c0,0-15.82-0.75-24.36-19.34L971.72,668.6z"/>
</g>
<g id="Layer_11">
	<path class="st16" d="M973.48,672.11c0,0,7.53-22.85,31.64-27.12c0,0,14.82,2.76,11.8,35.91c0,0-2.26,40.93-23.6,35.91
		C993.31,716.81,959.67,712.04,973.48,672.11z"/>
</g>
<g id="Layer_16">
	<path class="st17" d="M997.66,679.44l-6.45-9.43c0,0-4.71-0.74-2.98-6.95l-3.23-8.68l4.22-2.48l4.96,9.18c0,0,5.21-0.25,2.73,6.95
		l4.71,9.43L997.66,679.44z"/>
	<path class="st17" d="M997.91,639.25l3.72,38.21l0.74-14.39c0,0,2.98-4.22,0.5-6.7l0.74-10.92l0.5-7.44L997.91,639.25z"/>
	<path class="st17" d="M997.66,679.44l-12.41-5.46c0,0,0.25-5.21-5.71-0.99l-7.69-0.99l-1.49,6.7l7.2,0.5c0,0,2.48,6.45,6.7,0.99
		l11.41,2.73L997.66,679.44z"/>
	<path class="st17" d="M995.68,682.92l-10.17,4.71c0,0-5.46-1.24-5.96,3.23l-8.44,4.96l0.99,6.2l8.69-4.71c0,0,7.2,1.49,7.44-4.71
		l8.93-3.72L995.68,682.92z"/>
	<path class="st17" d="M997.17,688.87l-2.73,5.71c0,0-6.45,1.49-2.98,8.68l-4.22,12.16l5.46,1.24l4.22-12.41
		c0,0,5.96,0.74,2.73-5.46l1.24-9.93H997.17z"/>
	<path class="st17" d="M1000.89,688.87l2.23-2.48l3.23,6.45c0,0,2.48,0.74,1.74,5.21l3.23,8.19l-3.47,4.71l-2.73-7.94
		c0,0-3.47-2.98-2.48-7.94L1000.89,688.87z"/>
	<path class="st17" d="M1002.88,679.94l0.25,6.45l4.47,0.25c0,0,0.5,4.71,3.23,0.5l5.21,0.5c0,0-1.24-3.97,1.49-6.45l-5.46-1.49
		c0,0-3.97-3.72-5.46-0.25L1002.88,679.94z"/>
	<path class="st17" d="M1001.64,677.46l1.24,2.48l2.98-8.19c0,0,4.71,1.99,4.71-4.96l5.21-10.42c0,0-2.48,0-3.47-1.74
		c-0.25-1.24-3.97,7.2-3.97,7.2s-3.97-2.48-4.96,5.96L1001.64,677.46z"/>
</g>
<g id="Layer_14">
	<ellipse class="st17" cx="999.66" cy="683.47" rx="5.12" ry="5.27"/>
</g>
<g id="Layer_15">
	<circle class="st18" cx="1000.39" cy="683.67" r="1.74"/>
	<circle class="st18" cx="992.29" cy="664.63" r="1.51"/>
	<circle class="st18" cx="981.48" cy="676.7" r="1.51"/>
	<circle class="st18" cx="1007.38" cy="666.89" r="1.51"/>
	<circle class="st18" cx="1009.14" cy="682.73" r="1.51"/>
	<circle class="st18" cx="983.49" cy="692.04" r="1.51"/>
	<circle class="st18" cx="995.56" cy="700.84" r="1.51"/>
	<circle class="st18" cx="1005.62" cy="697.32" r="1.51"/>
	<polygon class="st18" points="987.26,654.06 982.48,652.8 982.23,646.52 987.77,646.77 	"/>
	<path class="st19" d="M1000.18,648.68c0,0-3.61-7.21,0.66-11.47C1000.83,637.21,1006.08,646.72,1000.18,648.68z"/>
	<polygon class="st20" points="1013.42,656.07 1013.17,651.55 1017.44,649.53 1017.44,654.82 	"/>
	<polygon class="st20" points="1015.68,685.5 1017.44,678.96 1021.22,683.99 1017.44,688.77 	"/>
	<polygon class="st20" points="1010.9,706.88 1008.64,709.4 1009.9,715.68 1012.41,715.43 1012.16,708.64 	"/>
	<polygon class="st20" points="990.78,715.68 986.76,718.7 988.77,726.75 992.29,722.73 	"/>
	<polygon class="st20" points="966.39,705.62 970.16,706.88 972.67,700.59 969.66,699.59 	"/>
</g>
</svg>
