<?xml version="1.0" encoding="utf-8"?>
<!-- Generator: Adobe Illustrator 24.0.2, SVG Export Plug-In . SVG Version: 6.00 Build 0)  -->
<svg version="1.1" id="Layer_1" xmlns="http://www.w3.org/2000/svg" xmlns:xlink="http://www.w3.org/1999/xlink" x="0px" y="0px"
	 width="1080px" height="1080px" viewBox="0 0 1080 1080" style="enable-background:new 0 0 1080 1080;" xml:space="preserve">
<style type="text/css">
	.st0{display:none;}
	.st1{fill:none;stroke:#000000;stroke-width:4;stroke-miterlimit:10;}
	.st2{fill:#F8CA08;}
	.st3{fill:#F63434;}
	.st4{fill:#6B285B;}
	.st5{fill:#DA0B3A;}
	.st6{fill:#8CA52C;stroke:#FFFFFF;stroke-miterlimit:10;}
	.st7{fill:#8BA53C;stroke:#FFFFFF;stroke-miterlimit:10;}
	.st8{fill:#FFB625;stroke:#FFFFFF;stroke-miterlimit:10;}
	.st9{fill:#FFFFFF;stroke:#FFFFFF;stroke-miterlimit:10;}
	.st10{fill:none;stroke:#85CDDD;stroke-width:3;stroke-miterlimit:10;}
	.st11{fill:#FDBE20;}
	.st12{fill:#FBBC24;}
	.st13{fill:#FFFFFF;}
	.st14{fill:#FBBF28;}
	.st15{fill:#FFDB35;stroke:#FFFFFF;stroke-miterlimit:10;}
	.st16{fill:#E50D47;stroke:#FFFFFF;stroke-miterlimit:10;}
	.st17{fill:#FEEA81;stroke:#FFFFFF;stroke-miterlimit:10;}
	.st18{fill:#76487F;stroke:#FFFFFF;stroke-miterlimit:10;}
	.st19{fill:#764880;stroke:#FFFFFF;stroke-width:1.3033;stroke-miterlimit:10;}
	.st20{fill:#764880;stroke:#FFFFFF;stroke-miterlimit:10;}
</style>
<g id="Layer_1_1_" class="st0">
</g>
<g id="Layer_2_1_">
	<path class="st1" d="M993.7,34.6l-30.3,41.5L690.8,408.9c0,0-185.5,188.6-226.1,196.3l-23.3,21.9c0,0-152.6,83.2-195.5,100.1
		l-20.6,6.6L94.4,747.8L63,808.4l-50.4,20.1"/>
</g>
<g id="Layer_3">
	<path class="st2" d="M960.8,56.5l103.5,279c0,0-140.6,122.7-151.9,159.8c0,0-73.1,108-78.8,121.5c0,0-94.5-225.1-112.5-250.9
		L960.8,56.5z"/>
	<path class="st3" d="M464.6,601.2l31.5,304.9c0,0,1.1-31.5,90-68.6c0,0,65.5-31.8,80.9-54.5l32.7-30.7L690.8,405
		C690.8,404.9,482.4,609,464.6,601.2z"/>
	<path class="st4" d="M245.8,727.2l195.5-100.1c0,0-28.7,262.3-38.9,327.1c0,0-44.5,7.4-57.5,27.8c0,0-24.1,39.8-55.6,31.5
		c0,0-27.8,1.9-24.1,15.8L245.8,727.2z"/>
	<path class="st5" d="M63,802.4l31.4-60.6l130.9-14.1c0,0-19.7,79.6-14.7,97.5l-26.9,212.2l-45.3,8c0,0-82.2-23.9-90.1-20.4
		l22.4-143.4L63,802.4z"/>
</g>
<g id="Layer_4">
	<path class="st6" d="M846.5,447.5l-4,16.9c0,0,1,63.6,22.4,57.6c0,0,19.4-5.5,8.4-55.1c0,0-5.5-30.8,1.5-32.8c0,0,5,45.2,14.9,44.7
		c0,0,27.8-30.8,27.3-49.7c0,0,13.9,4.5,16.4-6.5l1.9-18.5l6.5-61.5l14.4,58.1l2-26.3l-15.4-71.5l5.1-45.1l-9.4-25.4l6.7-12.7
		c0,0-10.7,3.3-19.4-12.7l-5.3,21.4c0,0,26.1,48.7,20.7,59.4l0.3,43.4l-12.6-9.3l6.8-9.6c0,0-10.2,0.6-17-4.9c0,0-6.2,21.3-2.2,25
		c0,0,22.2,15.1,21.3,23.1c0,0,4.6,73-16,48c0,0-8-13.9-7.4-30.7c0,0-12.7-30.4-18.3-30.9l-5.9,22.4c0,0,20.6,45.4,15.6,58.3
		c0,0-6.8,35.4-13,35.6c0,0-8.5,8-14.1-34.5l-3.2-19.2c0,0-15.9,22.7-8.5,88.7c-0.3-1.8-4.1,28-15.9-1.8L846.5,447.5z"/>
	<path class="st7" d="M880.8,326c0,0,0.8,12.1,6.7,9c0,0,5.9-10.2,5.3-13.1c0,0,9.4-2,7.8-13.3c0.2-1.2-3.3-8-4.7-8
		c0,0-3.3,3.9-0.4,12.3c0,0,1.4,3.9-3.9,1.6c0,0-4.9-6.1-3.3,8.6c0,0,1.8,8.6-4.3,2C884,325,881,322.3,880.8,326z"/>
	<path class="st7" d="M881.3,291.8c0,0,8.4,2.5,8-10.1c0,0,9.7-56.2,18.6-60.8C907.9,220.9,880.1,270.3,881.3,291.8z"/>
</g>
<g id="Layer_5">
	<path class="st8" d="M565,582.1c0,0-8.8,3-9.7,6.8c0,0,1.1-14.1,14.3-13.2c0,0,0.9-15.4,8.7-10.1c0,0,0.9-18.8,6.9-8.3
		c0,0,2.7-11.4,7.8-0.9c0,0,4.5-11,8.9-11.8c0,0,3.3,0,0.9,4.2c0,0-4,7.2-3.1,15.2l5.1,85.8l63-51.4c0,0,5.8-7.8,2.9-13
		c0,0,4.9-0.7,7.8,4.9l-0.9,12.5l5.8-3.6l-1.6,11.2l-0.9,15.2l-2.9,34.9c0,0-4.7-9-12.9-1.6l-54.2,37.4l4.1,85.9
		c0,0,2.9,4.1,11.1-0.4c0,0-1.2,8.5-8.8,10c0,0-2.2,3.7-6.1,3.2l-2.9-1.4l-0.3,11.3c0,0-2.8,4.5-6.1,2.3l-1.4-2.5l-0.4,2.3
		c0,0-0.6,14.3-6.7,6.2l-1.9-4c0,0-0.7,4-3.3,4.4c0,0-6.6,8.4-5.9-5.4c0,0-10.5,11.4-17.1,6.5c0,0,16.5-11.8,10.2-42.9l-4-51.5
		L512,753.5c0,0-5.2,8.2-3.3,12.2c0,0-4-11.9-1.8-14c0,0-5.8-1.2-1.5-8.2c0,0-7.3-4-0.6-11.6c0,0-4-7.9,3.1-12.2
		c0,0-5.5-14.9-1.8-17.7c0,0,2.4,12.2,11.6,2.7l51.2-33.8L565,582.1z"/>
</g>
<g id="Layer_6">
	<path class="st9" d="M571.1,583.2c0,0,7.4-4,6.8-4c-0.6,0,4.5-10.8,10.2-10.2h5.1l6.2,89.5c0,0,5.7,4,20.4-13l42.6-34.9
		c0,0,5.6-0.4,7.4,7c0,0,14.8-2,2.8,14.1c0,0,3.1,12.2-7,14.8l-62.2,47.4l5,88.9l-6.3,9.1c0,0-2.4,14.3-10.4,5.2l-7.8,2.6
		c0,0-0.9-12.8-0.9-15l-3.1-73.3c0,0-4.1-5.6-15.4,3.1l-52.8,28.3v-7.4c0,0-8.7-3.7,0.4-13.3v-6.5l62-36.8L571.1,583.2z"/>
</g>
<g id="Layer_10">
	<g>
	</g>
</g>
<g id="Layer_9">
	<polygon class="st10" points="292.8,916.7 332.3,761.7 364.4,874.2 	"/>
	<polygon class="st10" points="293.7,820.1 367,786.8 329.9,945.1 	"/>
</g>
<g id="Layer_7">
	<path class="st11" d="M581.7,588.4l-4.1,17.4c0,0,5.3,7.1,7.1,6.9c0,0,6.2-14.2,4.8-19.5L581.7,588.4z"/>
	<polygon class="st11" points="581.9,618.7 576,618.2 575.1,626.5 577.6,626.5 	"/>
	<polygon class="st11" points="586.5,616.6 586.8,612.9 593.2,605.6 594.1,615 	"/>
	<path class="st11" d="M581,646.7l2.5-15.6l8.3,3.4c0,0-1.4,18.1-3.7,18.1h-2.3C588.1,652.6,581,646.7,581,646.7z"/>
	<path class="st11" d="M645.3,642.4l6.8-15.3l11.7-0.7c0,0-4.7,16-11,16.7C652.8,643.1,646.7,644.1,645.3,642.4z"/>
	<path class="st11" d="M640.4,640.1c0,0-5.4-2.8-3.8-6.8l6.6-3.3C643.2,630,643.2,638.9,640.4,640.1z"/>
	<path class="st11" d="M636.4,660.3c0,0,1.9-9.2,3.8-9.9l1.9,6.3C642,656.8,638.9,661,636.4,660.3z"/>
	<path class="st11" d="M612.6,668.5l11.5-19c0,0,6.8-1.6,8.7,0.7l-10.6,17.1C622.3,667.3,618,670.4,612.6,668.5z"/>
	<path class="st11" d="M512.6,728.6c0,0,7.3-12.7,8.9-13.2l10.3,0.7l-7.7,14.8C524.1,731,513.6,730.2,512.6,728.6z"/>
	<polygon class="st11" points="533.5,704.9 540.3,701.1 538.7,710.1 	"/>
	<path class="st11" d="M540.6,712.2c0,0,10.6-11.7,11.3-11.7c0.7,0,8.7-1.2,9.2,0c0.5,1.2-5.6,11.5-7.7,12.7
		C551.1,714.3,540.6,712.2,540.6,712.2z"/>
	<path class="st11" d="M587.7,735.4c0,0,4.1-12.9,5.1-13.2c0,0,6.3,3.6,6.6,4.6c0.2,1-1.5,17.5-3.6,19.2
		C595.7,746.1,588.4,738.8,587.7,735.4z"/>
	<path class="st11" d="M592.9,753.2c0,0-7.2-2.5-7.7-1.7l-0.8,11.1C584.3,762.6,594.6,755.7,592.9,753.2z"/>
	<path class="st11" d="M597.2,751.3c0,0,6.3-9.3,7.2-9.3l0.6,8.9C604.9,751,600,753.4,597.2,751.3z"/>
	<path class="st11" d="M591.5,783c0,0,2.9-15.7,3.8-16.9c0,0,6.8,3.8,7.2,4.9c0,0-3.2,16.3-4.7,17.6
		C597.7,788.7,591.5,784.5,591.5,783z"/>
	<path class="st12" d="M588.7,658l20.5,8.7c0,0,0,5.9-4.2,11.8l-13.2,34.8c0,0-4.4-0.2-7-2.6l-19.1-10.8c0,0,0.4-7,3.5-9.6
		L588.7,658z"/>
	<polygon class="st13" points="589.6,665.8 572.5,696.4 589.8,704.1 603.5,671.2 	"/>
</g>
<g id="Layer_8">
	<path class="st14" d="M588.8,683.9c0,0-6.1-8.6,1.2-14C590,670,595.6,676.7,588.8,683.9z"/>
	<path class="st14" d="M586.1,686.1c0,0-7.7,0-9.8,8.2C576.3,694.3,588.2,696.5,586.1,686.1z"/>
	<path class="st14" d="M591.5,688.1c0,0-8.4,5.9-1.1,10.5C590.4,698.7,597,692.1,591.5,688.1z"/>
	<path class="st14" d="M592.5,685.2c0,0,0.8-10.7,7.5-11.4C600.1,673.9,600.6,685.7,592.5,685.2z"/>
</g>
<g id="Layer_12">
	<path class="st15" d="M70.4,874.9c0,0,7-43.3,46.3-52.3l1-6c0,0,47.8-12.9,51.7,49.3c0,0,7,134.3-61.2,120.4
		c0,0-31.3-1.5-48.3-38.3L70.4,874.9z"/>
</g>
<g id="Layer_11">
	<path class="st16" d="M73.9,881.8c0,0,14.9-45.3,62.7-53.7c0,0,29.4,5.5,23.4,71.2c0,0-4.5,81.1-46.8,71.2
		C113.2,970.4,46.5,961,73.9,881.8z"/>
</g>
<g id="Layer_16">
	<path class="st17" d="M121.8,896.4L109,877.7c0,0-9.3-1.5-5.9-13.8l-6.4-17.2l8.4-4.9l9.8,18.2c0,0,10.3-0.5,5.4,13.8l9.3,18.7
		L121.8,896.4z"/>
	<path class="st17" d="M122.3,816.7l7.4,75.7l1.5-28.5c0,0,5.9-8.4,1-13.3l1.5-21.6l1-14.7L122.3,816.7z"/>
	<path class="st17" d="M121.8,896.4l-24.6-10.8c0,0,0.5-10.3-11.3-2l-15.2-2l-3,13.3l14.3,1c0,0,4.9,12.8,13.3,2l22.6,5.4
		L121.8,896.4z"/>
	<path class="st17" d="M117.9,903.3l-20.2,9.3c0,0-10.8-2.5-11.8,6.4l-16.7,9.8l2,12.3l17.2-9.3c0,0,14.3,3,14.7-9.3l17.7-7.4
		L117.9,903.3z"/>
	<path class="st17" d="M120.8,915.1l-5.4,11.3c0,0-12.8,3-5.9,17.2l-8.4,24.1l10.8,2.5l8.4-24.6c0,0,11.8,1.5,5.4-10.8l2.5-19.7
		L120.8,915.1L120.8,915.1z"/>
	<path class="st17" d="M128.2,915.1l4.4-4.9l6.4,12.8c0,0,4.9,1.5,3.4,10.3l6.4,16.2l-6.9,9.3l-5.4-15.7c0,0-6.9-5.9-4.9-15.7
		L128.2,915.1z"/>
	<path class="st17" d="M132.1,897.4l0.5,12.8l8.9,0.5c0,0,1,9.3,6.4,1l10.3,1c0,0-2.5-7.9,3-12.8l-10.8-3c0,0-7.9-7.4-10.8-0.5
		L132.1,897.4z"/>
	<path class="st17" d="M129.7,892.4l2.5,4.9l5.9-16.2c0,0,9.3,3.9,9.3-9.8l10.3-20.6c0,0-4.9,0-6.9-3.4c-0.5-2.5-7.9,14.3-7.9,14.3
		s-7.9-4.9-9.8,11.8L129.7,892.4z"/>
</g>
<g id="Layer_14">
	<ellipse class="st17" cx="125.8" cy="904.4" rx="10.1" ry="10.4"/>
</g>
<g id="Layer_15">
	<circle class="st18" cx="127.2" cy="904.8" r="3.4"/>
	<circle class="st18" cx="111.2" cy="867" r="3"/>
	<circle class="st18" cx="89.7" cy="890.9" r="3"/>
	<circle class="st18" cx="141.1" cy="871.5" r="3"/>
	<circle class="st18" cx="144.5" cy="902.9" r="3"/>
	<circle class="st18" cx="93.7" cy="921.3" r="3"/>
	<circle class="st18" cx="117.6" cy="938.8" r="3"/>
	<circle class="st18" cx="137.6" cy="931.8" r="3"/>
	<polygon class="st18" points="101.2,846.1 91.7,843.6 91.2,831.1 102.2,831.6 	"/>
	<path class="st19" d="M126.8,835.4c0,0-7.2-14.3,1.3-22.7C128.1,812.7,138.5,831.5,126.8,835.4z"/>
	<polygon class="st20" points="153,850.1 152.5,841.1 161,837.1 161,847.6 	"/>
	<polygon class="st20" points="157.5,908.4 161,895.4 168.5,905.4 161,914.9 	"/>
	<polygon class="st20" points="148,950.7 143.6,955.7 146.1,968.2 151,967.7 150.5,954.2 	"/>
	<polygon class="st20" points="108.2,968.2 100.2,974.2 104.2,990.1 111.2,982.1 	"/>
	<polygon class="st20" points="59.8,948.2 67.3,950.7 72.3,938.3 66.3,936.3 	"/>
</g>
</svg>
