<svg id="Layer_1" data-name="Layer 1" xmlns="http://www.w3.org/2000/svg" width="45" height="45" viewBox="0 0 45 45"><title>HA-circle-small</title><path d="M22.5,42A19.5,19.5,0,1,1,41.9541,22.5,19.4992,19.4992,0,0,1,22.5,42Z" fill="#f2b646"/><path d="M22.5,5.5a17,17,0,1,1-16.9538,17A16.9962,16.9962,0,0,1,22.5,5.5m0-5a22,22,0,1,0,21.9538,22A21.9769,21.9769,0,0,0,22.5.5Z" fill="#f7d28d"/><g id="Layer_2" data-name="Layer 2"><path d="M18.3745,14.7a.2436.2436,0,0,1,.1787-.0737H21.01a.2516.2516,0,0,1,.2524.2519V29.0742a.251.251,0,0,1-.2524.252H18.5532a.251.251,0,0,1-.2524-.252V23.2783a.0929.0929,0,0,0-.105-.1054H13.5552a.0929.0929,0,0,0-.105.1054v5.7959a.251.251,0,0,1-.252.252h-2.457a.251.251,0,0,1-.2524-.252V14.8779a.2516.2516,0,0,1,.2524-.2519h2.457a.2516.2516,0,0,1,.252.2519v5.6494a.0927.0927,0,0,0,.105.105h4.6406a.0927.0927,0,0,0,.105-.105V14.8779A.2422.2422,0,0,1,18.3745,14.7Z" fill="#fff"/><path d="M32.0547,29.1162l-.6289-2.0576c-.0293-.0566-.0625-.084-.1055-.084h-5.166c-.041,0-.0762.0274-.1055.084l-.6074,2.0576a.266.266,0,0,1-.2734.21H22.501a.2355.2355,0,0,1-.189-.0733.23.23,0,0,1-.021-.2207l4.5352-14.1963a.2645.2645,0,0,1,.2734-.21h3.2969a.2645.2645,0,0,1,.2734.21l4.5352,14.1963a.2363.2363,0,0,1,.0215.1045c0,.126-.0762.1895-.23.1895h-2.668A.266.266,0,0,1,32.0547,29.1162Zm-5.166-4.4307h3.6972c.084,0,.1114-.0419.084-.1259l-1.8906-6.2373c-.0137-.0557-.0352-.0806-.0625-.0738-.0293.0074-.0488.0318-.0625.0738l-1.85,6.2373C26.791,24.6436,26.82,24.6855,26.8887,24.6855Z" fill="#fff"/></g></svg>