<?xml version="1.0" encoding="utf-8"?>
<!-- Generator: Adobe Illustrator 21.0.0, SVG Export Plug-In . SVG Version: 6.00 Build 0)  -->
<svg version="1.1" id="Layer_1" xmlns="http://www.w3.org/2000/svg" xmlns:xlink="http://www.w3.org/1999/xlink" x="0px" y="0px"
	 viewBox="0 0 317.57 539.03" style="enable-background:new 0 0 317.57 539.03;" xml:space="preserve">
<style type="text/css">
	.st0{fill:#76685E;}
	.st1{fill:#765F4F;}
	.st2{fill:#5F4C43;}
	.st3{fill:#B68067;}
	.st4{fill:#D19777;}
	.st5{fill:#775546;}
	.st6{fill:#63473B;}
	.st7{fill:#532C1D;}
	.st8{fill:#B09D7A;}
	.st9{fill:none;stroke:#231F20;stroke-miterlimit:10;}
	.st10{fill:#454134;}
</style>
<g id="Layer_2">
	<path class="st0" d="M88.34,332.23c0,0,6.16-33.32,44.91-30.42c0,0,33.32-6.88,43.82,29c0,0-51.58,13.71-88.51,1.52L88.34,332.23z"
		/>
	<path class="st1" d="M88.34,332.23c0,0-17.75,10.41-36.31,10.86c0,0-41.09,8.92-18.73,13.3c0,0,119.67,9.44,175.88-2.1
		c0,0,41.56-4.66,25.4-10.21c0,0-45.54-11.7-57.49-13.3C177.03,330.78,123.17,344.62,88.34,332.23z"/>
	<path class="st2" d="M239.12,357.46c0-3.16,0-9-0.43-10.31c0,0-35.66,12.91-102,12.65c0,0-100.3-0.19-110-5.67
		c0,0-0.62,6.54-0.66,10.32c0.76,0,9,8.86,54.6,8.68c0,0,104.52,0.2,110.29-3.92c0,0,25.14-2.47,39.23-6
		C232.82,360.83,235.85,358.89,239.12,357.46z"/>
	<path class="st3" d="M138.16,135.6c-1.38-0.01-2.76-0.11-4.13-0.31c0,0.3,0,0.61,0.07,0.93c0,0-8.57,163.46-5.71,164.7l4.83,0.86
		c0,0,5-130.24,7.48-166.34C139.88,135.55,139.03,135.6,138.16,135.6z"/>
	<polygon class="st4" points="132.25,301.81 136.24,301.23 135.73,228.68 	"/>
	<path class="st4" d="M129.82,133.68l1.83,65.88l3.48-63.67c-0.04-0.37-0.19-0.72-0.43-1C133.04,134.63,131.41,134.22,129.82,133.68
		z"/>
	<path class="st5" d="M277.5,470.49c0,0-11.25-13.39-44.89-15.74c-2.43,1.3-5.1,2.08-7.84,2.3h-0.11c-1.48,3.46-3.59,6.62-6.22,9.32
		c-0.05,1.1-0.33,2.17-0.82,3.15c-1.77,3.43-6,4.3-9.57,4.36c-0.17,0.01-0.34,0.01-0.51,0c-3.61,1.54-7.49,2.35-11.41,2.37
		c-1.06,0-2.11-0.06-3.16-0.17c-3.2,1.18-6.59,1.8-10,1.81c-5.23,0.01-10.37-1.37-14.9-4c-4.85,0.14-9.23-1.62-9.52-7.39
		c-0.02-0.36,0.03-0.72,0.14-1.06c-3.75-5.15-5.95-11.27-6.33-17.63c-2.33,0.06-4.65,0.29-6.94,0.7c0,0-105.59-1.48-116.19,24.11
		c0,0-19,22.89,136.8,29C166.03,501.65,293.74,495.95,277.5,470.49z"/>
	<path class="st6" d="M283.63,462.89c0,0-23.91-14.33-43.7-12.77c-0.42,0.21-0.89,0.31-1.36,0.31c-0.25,0-0.5-0.03-0.74-0.08l0,0
		c-0.04,0.48-0.19,0.95-0.46,1.36c36.86,2.59,41.18,16.08,41.18,16.08c8.19,22.4-70.36,29.34-70.36,29.34
		c-74.3,12.16-165.27-13.72-165.27-13.72c-42.07-12.94,16.3-32.16,16.3-32.16s-29.71,4.39-39.27,15.27c0,0-18.44,8-3.9,26.79
		c0,0,66.08,29.05,130.84,25.63c0,0,126.55-1,147-28.37C293.87,490.57,307.42,474.85,283.63,462.89z"/>
	<path class="st7" d="M9.29,483.92c0,0-51.51,33,88,52c0,0,136.74,10.3,182.63-8.76c0,0,49.64-22.67,16.86-44.83
		c0,0-3.77,14.77-41.69,24.29c0,0-64.5,12-88.82,11.11c-1,0-51.93,7.26-123-15.87L15.03,490.8l-5.1-8.86L9.29,483.92z"/>
	<path class="st8" d="M131.56,137.29l0.24,0.13c1.52,0.86,3.31,1.1,5,0.66l0.36-0.1C135.28,137.93,133.4,137.7,131.56,137.29z"/>
	<path class="st8" d="M158.58,466.49c-0.02-0.36,0.03-0.72,0.14-1.07c-3.88-5.31-6.09-11.66-6.37-18.23
		c-0.05-1.05-0.03-2.11,0.05-3.16c-2,8.25,1.93,15.33,4.51,18.84c0.95,1.22,1.45,2.72,1.43,4.26c0.09,1.84,0.73,3.61,1.84,5.07
		c0.61,0.71,2.12,1.11,4.06,1.31C161.13,472.73,158.79,470.65,158.58,466.49z"/>
	<path class="st9" d="M97.18,502.69"/>
	<path class="st8" d="M134.03,137.68c0,0-23-12-3.37-30.69c0,0,1.55-7.65-4.62-7.59c0,0-16.11,9.81-20.92-6.29
		c0,0-4.26-15.55,12.77-16.1c0,0-2.59-14.25-0.92-15.92c0,0-17.4-4.26-13.88-20.92c0,0,2.59-9.44,17.39-9.81
		c0,0-3.33-16.65,12.4-20.54c0,0,10-3.33,18.33,8.88c0,0,9.44-3,13-2.77c0,0,6.48-28.14,31.1-9.63c0,0,5.18,8.33,5,15.92
		c0,0,19.06-13,30.91,3.89c0,0,2.73,16.26,1.11,18.88c0,0,44.48,39.52,55.9,69.89c0,0,20.53,42.39,23.93,68.14
		c0,0,9.9,82.68,2.95,120.66c0,0-17.63,126-90.43,153.37c0,0-5.34,15.52-9.64,16c0,0-17,5.23-22.05,3c0,0-14.48,4.69-26.51-2.61
		c0,0-9.46,0.31-7.74-8c0,0-15-14.77-0.86-29.17l5.8-2.58c0,0-8.38-19.12,8.81-26.21c0,0,23.21-4.08,21.92,17.4
		c0,0,1.5,10.1-12.89,5.81c0,0-8.6,15.9,15.25,13.1c0,0,32.62-5.58,57.56-48.91c0,0,60.39-95,28-235c0,0-36.56-95.41-78-109.9
		c0,0-31.46-22-60.86,0.82c0,0-17.39,41.41,14.49,34.37c0,0,5-8.28-4.55-13.66c0,0-6.21-17.39,17-14.5c0,0,24.43,9.94,5,35.2
		c0,0,15.32,18.21-6.62,26.08c0,0-8.7,0.42-15.74-5C153.03,113.29,156.51,138.86,134.03,137.68z"/>
</g>
<g id="Layer_3">
	<path class="st10" d="M232.15,67.96c-0.22-2.36,0.21-4.74,1.25-6.87c0.94-2.28,2-4.52,3-6.78c0.26-0.58-0.6-1.09-0.86-0.5
		c-1.07,2.4-2.2,4.79-3.18,7.23c-1.04,2.24-1.45,4.72-1.17,7.18c0.1,0.64,1.07,0.37,1-0.26H232.15z"/>
	<path class="st10" d="M238.65,57.91c-1.2,3.18-2.13,6.46-2.8,9.79c-0.13,0.63,0.83,0.89,1,0.26c0.67-3.33,1.61-6.6,2.81-9.78
		c0.22-0.6-0.74-0.86-1-0.27L238.65,57.91z"/>
	<path class="st10" d="M235.55,68.11c1.43,0.64,2.77,1.45,4,2.42c0.2,0.19,0.51,0.19,0.71,0c0.19-0.19,0.19-0.51,0-0.7
		c-1.3-1.02-2.72-1.87-4.23-2.54c-0.24-0.13-0.54-0.05-0.68,0.18c-0.14,0.23-0.06,0.53,0.17,0.67c0,0,0.01,0.01,0.01,0.01
		L235.55,68.11z"/>
	<path class="st10" d="M241.03,65.07c1.68,0.76,4.2,2,3.8,4.22c-0.28,1.06-0.68,2.09-1.17,3.07l-1.38,3.3
		c-0.25,0.6,0.72,0.86,1,0.27l1.55-3.71c0.62-1.08,0.98-2.29,1.07-3.54c-0.15-2.38-2.39-3.6-4.32-4.47
		c-0.58-0.26-1.09,0.6-0.51,0.86L241.03,65.07z"/>
	<path class="st10" d="M249.79,71.45c-0.63,2.57-1.28,5.14-1.87,7.72c-0.32,0.9-0.03,1.9,0.72,2.49c1,0.83,2.06,1.62,3.09,2.43
		c0.5,0.4,1.22-0.31,0.71-0.71l-2.77-2.17c-0.37-0.29-0.86-0.58-0.89-1.1c0.03-0.55,0.14-1.09,0.33-1.61l1.64-6.79
		c0.15-0.62-0.81-0.89-1-0.26L249.79,71.45z"/>
	<path class="st10" d="M254.61,78.86c1.23,1.64,2.67,3.11,4.28,4.38c0.2,0.19,0.51,0.19,0.71,0c0.19-0.19,0.19-0.51,0-0.7
		c-1.55-1.21-2.94-2.62-4.13-4.19c-0.14-0.23-0.44-0.31-0.68-0.18C254.55,78.31,254.47,78.61,254.61,78.86
		C254.61,78.86,254.61,78.86,254.61,78.86L254.61,78.86z"/>
	<path class="st10" d="M260.44,84.42c-0.22,0.73-0.58,1.41-1.06,2c-0.48,0.69-0.92,1.39-1.34,2.11c-0.83,1.43-1.55,2.92-2.15,4.46
		c-0.24,0.6,0.73,0.86,1,0.27c0.62-1.55,1.36-3.06,2.21-4.5c0.42-0.71,0.88-1.4,1.35-2.08c0.47-0.59,0.81-1.27,1-2
		C261.58,84.06,260.61,83.79,260.44,84.42L260.44,84.42z"/>
	<path class="st10" d="M266.08,86.82c-2.33,2.75-4.03,5.98-5,9.45c-0.07,0.28,0.09,0.56,0.36,0.63c0.28,0.07,0.56-0.09,0.64-0.36
		c0.92-3.3,2.54-6.37,4.74-9c0.41-0.49-0.29-1.2-0.71-0.71L266.08,86.82z"/>
	<path class="st10" d="M260.82,96.71c0.48,1.3,1.11,2.53,1.88,3.68c0.14,0.23,0.44,0.31,0.68,0.18c0.24-0.14,0.32-0.44,0.18-0.68
		c-0.72-1.08-1.32-2.23-1.77-3.45c-0.09-0.26-0.35-0.41-0.62-0.35C260.91,96.17,260.75,96.44,260.82,96.71L260.82,96.71z"/>
	<path class="st10" d="M266.72,97.71c1.16,1.66,2.22,3.38,3.17,5.17c0.31,0.57,1.17,0.06,0.87-0.51c-0.96-1.78-2.02-3.5-3.18-5.16
		c-0.14-0.23-0.44-0.31-0.68-0.18c-0.24,0.13-0.32,0.43-0.19,0.67C266.71,97.7,266.72,97.71,266.72,97.71z"/>
	<path class="st10" d="M269.88,102.35l-3.8,5.77c-0.36,0.53,0.51,1,0.86,0.5l3.8-5.76C271.1,102.32,270.23,101.86,269.88,102.35
		L269.88,102.35z"/>
	<path class="st10" d="M276.55,104.29c-1.01,0.95-1.87,2.05-2.54,3.27l-2.54,4c-0.35,0.54,0.52,1,0.86,0.5l2.47-3.84
		c0.65-1.18,1.47-2.25,2.45-3.18c0.5-0.41-0.21-1.11-0.7-0.71V104.29z"/>
	<path class="st10" d="M271.65,111.87c0.3,2.01,0.87,3.98,1.68,5.84c0.13,0.24,0.43,0.32,0.67,0.19c0,0,0.01,0,0.01-0.01
		c0.24-0.14,0.32-0.44,0.18-0.68c-0.77-1.79-1.3-3.68-1.58-5.61c-0.09-0.23-0.34-0.37-0.58-0.31c-0.26,0.08-0.42,0.35-0.35,0.62
		L271.65,111.87z"/>
	<path class="st10" d="M277.25,114.46l2.83,5.27c0.3,0.56,1.16,0.06,0.86-0.51l-2.83-5.26C277.8,113.39,276.94,113.9,277.25,114.46
		L277.25,114.46z"/>
	<path class="st10" d="M279.94,119.17c-1.7,1.26-3.09,2.9-4.06,4.78c-0.14,0.24-0.06,0.55,0.18,0.69c0.24,0.14,0.54,0.06,0.68-0.18
		c0.88-1.73,2.15-3.25,3.7-4.42c0.23-0.15,0.31-0.45,0.18-0.69C280.48,119.11,280.18,119.03,279.94,119.17z"/>
	<path class="st10" d="M280.31,129.79c0.61,1.72,1.06,3.5,1.33,5.31c0.08,0.27,0.35,0.42,0.62,0.35c0.26-0.08,0.42-0.35,0.35-0.62
		c-0.28-1.81-0.72-3.59-1.34-5.31c-0.08-0.26-0.35-0.41-0.61-0.35C280.39,129.25,280.24,129.52,280.31,129.79z"/>
	<path class="st10" d="M280.65,130.02c1.28,0.07,2.15-1,2.94-1.84c0.93-1.01,2.03-1.85,3.25-2.48c0.57-0.3,0.07-1.16-0.5-0.87
		c-1.18,0.61-2.25,1.4-3.18,2.34c-0.67,0.69-1.42,1.91-2.51,1.85C280.01,129.02,280.01,130.02,280.65,130.02z"/>
	<path class="st10" d="M285.57,131.17c0.67,2,1.36,3.96,2.07,5.89c0.07,0.28,0.36,0.44,0.64,0.36c0.28-0.07,0.44-0.36,0.36-0.63
		c-0.73-1.95-1.42-3.91-2.07-5.89C286.37,130.3,285.41,130.56,285.57,131.17z"/>
	<path class="st10" d="M287.76,136.74c-1.6,1.63-3,3.45-4.17,5.42c-0.11,0.25,0,0.55,0.25,0.66c0.22,0.1,0.47,0.03,0.61-0.16
		c1.12-1.89,2.47-3.64,4-5.21c0.46-0.46-0.25-1.17-0.7-0.71L287.76,136.74z"/>
	<path class="st10" d="M287.09,148.1l2.54,4.88c0.3,0.57,1.16,0.07,0.87-0.51l-2.55-4.87C287.65,147.03,286.79,147.53,287.09,148.1z
		"/>
	<path class="st10" d="M287.82,148.29c2.05-1.55,4.18-2.99,6.39-4.3c0.22-0.16,0.27-0.48,0.11-0.7c-0.14-0.19-0.39-0.26-0.61-0.16
		c-2.21,1.31-4.34,2.75-6.39,4.3c-0.24,0.14-0.32,0.44-0.18,0.68c0.13,0.24,0.43,0.32,0.67,0.19
		C287.81,148.3,287.82,148.29,287.82,148.29z"/>
	<path class="st10" d="M293.41,151.77c0.66,1.35,1.28,2.72,1.85,4.1c0.08,0.26,0.35,0.41,0.61,0.35c0.26-0.07,0.42-0.35,0.35-0.61
		c-0.6-1.47-1.25-2.91-1.94-4.34c-0.14-0.24-0.45-0.32-0.69-0.18C293.36,151.24,293.28,151.53,293.41,151.77L293.41,151.77z"/>
	<path class="st10" d="M295.44,155.29c-1.67,1.29-3.4,2.5-5.17,3.63c-0.55,0.35,0,1.21,0.5,0.87c1.78-1.14,3.5-2.35,5.17-3.63
		c0.23-0.15,0.31-0.45,0.18-0.69C295.98,155.23,295.68,155.15,295.44,155.29z"/>
	<path class="st10" d="M294.58,165.91c2.19-1.55,4.35-3.15,6.46-4.81c0.19-0.2,0.19-0.51,0-0.71c-0.2-0.19-0.51-0.19-0.71,0
		c-2.04,1.61-4.13,3.16-6.26,4.66C293.55,165.41,294.07,166.28,294.58,165.91z"/>
	<path class="st10" d="M293.32,166.62c0.57,0.97,1,2.01,1.29,3.09c0.07,0.26,0.35,0.42,0.61,0.35c0.26-0.08,0.42-0.35,0.35-0.62
		c-0.31-1.17-0.78-2.29-1.39-3.33c-0.14-0.23-0.44-0.31-0.68-0.17c-0.24,0.13-0.32,0.43-0.19,0.67
		C293.31,166.61,293.32,166.62,293.32,166.62L293.32,166.62z"/>
	<path class="st10" d="M299.67,169.89c0.2,1.93,0.56,3.85,1.07,5.72c0.07,0.28,0.36,0.44,0.64,0.36c0.28-0.07,0.44-0.36,0.36-0.63
		c-0.49-1.78-0.82-3.61-1-5.45c-0.01-0.27-0.23-0.49-0.5-0.5c-0.28,0-0.5,0.22-0.5,0.5H299.67z"/>
	<path class="st10" d="M300.86,174.97l-6.29,3.2c-0.58,0.3-0.07,1.16,0.5,0.87l6.29-3.21C301.94,175.54,301.43,174.68,300.86,174.97
		L300.86,174.97z"/>
	<path class="st10" d="M298.34,183.85c0.11,2.13,0.34,4.25,0.69,6.35c0.07,0.26,0.33,0.42,0.6,0.35c0,0,0.01,0,0.01,0
		c0.27-0.08,0.42-0.35,0.35-0.62c-0.33-2.01-0.55-4.04-0.65-6.08C299.34,183.21,298.34,183.2,298.34,183.85L298.34,183.85z"/>
	<path class="st10" d="M299.25,184.54l6.53-4.41c0.53-0.36,0-1.23-0.51-0.87l-6.52,4.41C298.22,184.03,298.75,184.9,299.25,184.54z"
		/>
	<path class="st10" d="M303.03,186.9c0.3,2.47,0.69,4.93,1.15,7.38c0.13,0.63,1.09,0.36,1-0.27c-0.45-2.36-0.83-4.73-1.12-7.11
		c-0.01-0.27-0.23-0.49-0.5-0.5c-0.28,0-0.5,0.22-0.5,0.5L303.03,186.9z"/>
	<path class="st10" d="M304.54,194.04c-2.69,0.51-3.69,3.55-6.07,4.59c-0.24,0.13-0.32,0.43-0.19,0.67c0,0,0,0.01,0.01,0.01
		c0.14,0.24,0.44,0.32,0.68,0.18c1.14-0.61,2.14-1.45,2.94-2.47c0.72-0.96,1.74-1.66,2.89-2c0.64-0.12,0.37-1.09-0.26-1V194.04z"/>
	<path class="st10" d="M302.03,204.34v6.23c0,0.28,0.22,0.5,0.5,0.5s0.5-0.22,0.5-0.5v-6.23c0-0.28-0.22-0.5-0.5-0.5
		S302.03,204.06,302.03,204.34z"/>
	<path class="st10" d="M303.03,204.56c2.1-1.09,4.27-2.06,6.48-2.91c0.59-0.22,0.33-1.19-0.27-1c-2.3,0.87-4.54,1.87-6.72,3
		c-0.57,0.3-0.07,1.16,0.51,0.86V204.56z"/>
	<path class="st10" d="M306.03,207.39c0.26,2.43,0.61,4.84,1.06,7.25c0.11,0.63,1.08,0.36,1-0.27c-0.43-2.31-0.76-4.64-1-7
		c-0.01-0.27-0.23-0.49-0.5-0.5c-0.28,0-0.5,0.22-0.5,0.5L306.03,207.39z"/>
	<path class="st10" d="M307.84,214.11c-1.37,0.34-2.64,0.99-3.72,1.9c-1.25,1-2.48,1.95-3.72,2.94c-0.19,0.19-0.19,0.51,0,0.7
		c0.2,0.19,0.51,0.19,0.71,0c1.17-0.93,2.33-1.87,3.52-2.78c1.01-0.86,2.2-1.47,3.48-1.79c0.63-0.13,0.36-1.09-0.27-1L307.84,214.11
		z"/>
	<path class="st10" d="M302.94,225.64c-0.59,3.14-0.85,6.33-0.79,9.52c0,0.28,0.22,0.5,0.5,0.5s0.5-0.22,0.5-0.5
		c-0.07-3.1,0.19-6.2,0.75-9.25c0.12-0.63-0.85-0.9-1-0.27H302.94z"/>
	<path class="st10" d="M303.27,225.94c2.67-1.54,5.38-3,8.15-4.37c0.58-0.28,0.08-1.14-0.5-0.86c-2.77,1.37-5.49,2.83-8.16,4.37
		c-0.23,0.15-0.31,0.45-0.16,0.69C302.74,226,303.04,226.07,303.27,225.94L303.27,225.94z"/>
	<path class="st10" d="M308.03,228.03l0.22,8.5c0,0.28,0.22,0.5,0.5,0.5s0.5-0.22,0.5-0.5l-0.22-8.5c0-0.28-0.22-0.5-0.5-0.5
		S308.03,227.75,308.03,228.03z"/>
	<path class="st10" d="M308.57,236.09c-2.98,1.22-5.88,2.61-8.7,4.17c-0.56,0.31-0.05,1.17,0.51,0.86c2.74-1.52,5.56-2.88,8.46-4.07
		c0.58-0.24,0.33-1.21-0.27-1V236.09z"/>
	<path class="st10" d="M303.73,246.85c-0.07,2.54-0.26,5.07-0.57,7.59c0,0.27,0.26,0.49,0.5,0.5c0.27-0.01,0.49-0.23,0.5-0.5
		c0.31-2.52,0.5-5.05,0.57-7.59C304.73,246.21,303.73,246.21,303.73,246.85z"/>
	<path class="st10" d="M304.67,247.29c1.48-0.59,2.94-1.26,4.35-2l4.53-2.16c0.58-0.28,0.07-1.14-0.51-0.87l-4.37,2.09
		c-1.39,0.72-2.81,1.38-4.27,1.95c-0.6,0.21-0.34,1.18,0.27,1V247.29z"/>
	<path class="st10" d="M309.03,251.94v8.29c0,0.28,0.22,0.5,0.5,0.5s0.5-0.22,0.5-0.5v-8.29c0-0.28-0.22-0.5-0.5-0.5
		S309.03,251.66,309.03,251.94z"/>
	<path class="st10" d="M309.33,259.63c-1.44,0.52-2.84,1.16-4.18,1.9l-4.34,2.14c-0.57,0.28-0.07,1.15,0.51,0.86l4.19-2.07
		c1.31-0.73,2.67-1.35,4.08-1.86c0.61-0.2,0.35-1.16-0.26-1V259.63z"/>
	<path class="st10" d="M303.65,269.85l-0.69,7.28c-0.06,0.64,0.94,0.64,1,0l0.69-7.28C304.71,269.21,303.71,269.22,303.65,269.85z"
		/>
	<path class="st10" d="M304.47,270l8.71-4.45c0.57-0.29,0.07-1.16-0.5-0.86l-8.72,4.45C303.39,269.43,303.9,270.3,304.47,270
		L304.47,270z"/>
	<path class="st10" d="M308.18,273.49l-0.62,8.61c0,0.64,1,0.64,1,0l0.62-8.61C309.23,272.85,308.23,272.85,308.18,273.49z"/>
	<path class="st10" d="M299.17,285.17c3.13-0.6,6.24-1.32,9.32-2.15c0.28-0.07,0.44-0.36,0.36-0.64s-0.36-0.44-0.64-0.36l0,0
		c-3.08,0.83-6.19,1.55-9.32,2.15C298.27,284.29,298.54,285.25,299.17,285.17z"/>
	<path class="st10" d="M304.12,288.79l-2.09,7.94c-0.07,0.28,0.09,0.56,0.37,0.63s0.56-0.09,0.63-0.37l2.08-7.93
		c0.07-0.28-0.09-0.56-0.36-0.63c-0.28-0.07-0.56,0.09-0.64,0.36L304.12,288.79z"/>
	<path class="st10" d="M305.16,289.59c3.13,0.08,6-1.47,9.15-1.36c0.65,0,0.65-1,0-1c-3.12-0.11-6,1.44-9.15,1.36
		C304.52,288.59,304.52,289.59,305.16,289.59z"/>
	<path class="st10" d="M307.59,294.75c-0.63,3.57-1.41,7.1-2.35,10.61c-0.07,0.28,0.09,0.56,0.37,0.63s0.56-0.09,0.63-0.37
		c0.94-3.5,1.72-7.03,2.35-10.6C308.7,294.39,307.74,294.12,307.59,294.75L307.59,294.75z"/>
	<path class="st10" d="M305.8,305.29c-3.06-0.44-6.16-0.55-9.25-0.34c-0.64,0-0.64,1,0,1c3-0.21,6.02-0.11,9,0.31
		c0.63,0.09,0.9-0.87,0.27-1L305.8,305.29z"/>
	<path class="st10" d="M299.74,311.65c-0.76,2.41-1.19,4.91-1.28,7.43c0,0.64,1,0.64,1,0c0.09-2.43,0.51-4.84,1.24-7.16
		c0.2-0.62-0.77-0.88-1-0.27H299.74z"/>
	<path class="st10" d="M300.87,311.94l9.61,0.22c0.28,0,0.5-0.22,0.5-0.5s-0.22-0.5-0.5-0.5l-9.61-0.22
		C300.23,310.94,300.23,311.94,300.87,311.94z"/>
	<path class="st10" d="M291.4,326.95c1.01-0.07,2.02,0.03,3,0.28c0.9,0.15,1.8,0.21,2.71,0.2h6.18c0.28,0,0.5-0.22,0.5-0.5
		s-0.22-0.5-0.5-0.5h-6.39c-0.97-0.01-1.94-0.1-2.89-0.29c-0.94-0.2-1.91-0.26-2.87-0.15c-0.64,0.09-0.37,1.06,0.26,1V326.95z"/>
	<path class="st10" d="M303.71,327.04l2.06-6.16c0.2-0.61-0.76-0.87-1-0.26l-2,6.16c-0.21,0.61,0.76,0.87,1,0.26H303.71z"/>
	<path class="st10" d="M294.22,332.86c-0.67,3.45-3.35,6.1-3.78,9.63c-0.08,0.64,0.92,0.63,1,0c0.41-3.4,3.1-6,3.74-9.36
		c0.13-0.63-0.84-0.9-1-0.27H294.22z"/>
	<path class="st10" d="M295.27,333.04c2.96-0.14,5.94-0.03,8.88,0.34c0.63,0.07,0.63-0.93,0-1c-2.94-0.37-5.92-0.48-8.88-0.34
		C294.63,332.04,294.63,333.04,295.27,333.04z"/>
	<path class="st10" d="M298.03,339.81c-1.82,2.73-2.3,6.1-4.1,8.84c-0.35,0.54,0.51,1,0.87,0.51c1.79-2.75,2.27-6.12,4.1-8.85
		C299.26,339.78,298.39,339.31,298.03,339.81L298.03,339.81z"/>
	<path class="st10" d="M294.57,348.62c-3-0.47-5.94-0.73-8.93-1c-0.64-0.06-0.63,0.94,0,1c2.9,0.24,5.8,0.49,8.67,0.95
		c0.63,0.1,0.9-0.87,0.26-1V348.62z"/>
	<path class="st10" d="M285.35,361.56c0.95-2.14,1.97-4.24,3.07-6.31c0.3-0.57-0.57-1.07-0.87-0.5c-1.09,2.06-2.11,4.17-3.06,6.31
		c-0.13,0.24-0.05,0.54,0.18,0.68C284.91,361.88,285.21,361.8,285.35,361.56z"/>
	<path class="st10" d="M288.03,355.38c3.41-0.04,6.82,0.04,10.21,0.23c0.64,0,0.64-1,0-1c-3.4-0.19-6.8-0.27-10.21-0.23
		c-0.28,0-0.5,0.22-0.5,0.5S287.75,355.38,288.03,355.38z"/>
	<path class="st10" d="M290.64,360.73c-0.96,2.22-1.66,4.54-2.1,6.92c0,0.27,0.25,0.49,0.5,0.5c0.27-0.01,0.49-0.23,0.5-0.5
		c0.44-2.29,1.13-4.52,2.06-6.65c0.23-0.6-0.74-0.86-1-0.27L290.64,360.73z"/>
	<path class="st10" d="M288.95,367.29c-3.56-0.21-7.1-0.72-10.57-1.54c-0.62-0.14-0.89,0.82-0.26,1c3.56,0.82,7.18,1.34,10.83,1.54
		C289.6,368.29,289.59,367.29,288.95,367.29z"/>
	<path class="st10" d="M276.96,379.88c-0.01-0.3,0.08-0.59,0.26-0.83c0.17-0.3,0.35-0.59,0.53-0.88l1.11-1.86l2.19-3.66
		c0.14-0.24,0.05-0.55-0.19-0.68c-0.23-0.13-0.53-0.06-0.67,0.17l-2.42,4l-1.19,2c-0.44,0.57-0.65,1.28-0.59,2
		c0.11,0.64,1.08,0.37,1-0.26H276.96z"/>
	<path class="st10" d="M280.56,372.76c3.39-0.17,6.48,1.72,9.87,1.64c0.28,0,0.5-0.22,0.5-0.5s-0.22-0.5-0.5-0.5
		c-3.38,0.08-6.47-1.81-9.87-1.64C279.92,371.76,279.92,372.76,280.56,372.76z"/>
	<path class="st10" d="M268.34,384.29c1.89,0.94,3.88,1.68,5.92,2.21c2.13,0.4,4.23,0.93,6.3,1.59c0.6,0.24,0.86-0.73,0.27-1
		c-1.99-0.65-4.03-1.17-6.09-1.54c-2.03-0.51-4.01-1.24-5.89-2.16c-0.58-0.29-1.09,0.58-0.51,0.86L268.34,384.29z"/>
	<path class="st10" d="M281.25,387.58c0.13-2.33,1.66-4.29,3.06-6c0.19-0.2,0.19-0.51,0-0.71c-0.19-0.2-0.51-0.2-0.71,0c0,0,0,0,0,0
		c-1.58,2-3.21,4.13-3.35,6.76c0,0.65,1,0.65,1,0V387.58z"/>
	<path class="st10" d="M266.74,397.39c0.8-2.34,1.89-4.56,3.26-6.62c0.35-0.54-0.51-1-0.87-0.51c-1.4,2.14-2.53,4.44-3.36,6.86
		c-0.21,0.61,0.76,0.87,1,0.27H266.74z"/>
	<path class="st10" d="M269.64,390.88c2.02-0.06,4.03,0.3,5.9,1.06c1.83,0.66,3.72,1.11,5.65,1.37c0.64,0.06,0.64-0.94,0-1
		c-1.98-0.28-3.92-0.78-5.79-1.47c-1.83-0.72-3.79-1.06-5.76-1c-0.64,0.07-0.64,1.07,0,1L269.64,390.88z"/>
	<path class="st10" d="M274.49,395.34c-2.51,2.83-4.66,5.98-6.38,9.35c-0.29,0.57,0.57,1.08,0.86,0.51c1.68-3.3,3.78-6.38,6.23-9.15
		C275.62,395.57,274.92,394.86,274.49,395.34L274.49,395.34z"/>
	<path class="st10" d="M268.68,404.56c-1.69-0.79-3.43-1.45-5.21-2c-0.88-0.21-1.78-0.33-2.65-0.58c-0.9-0.26-1.77-0.6-2.62-1
		c-0.58-0.27-1.09,0.59-0.5,0.86c0.86,0.4,1.75,0.74,2.66,1c0.88,0.26,1.77,0.39,2.65,0.59c1.85,0.52,3.66,1.19,5.41,2
		c0.59,0.24,0.85-0.73,0.26-1L268.68,404.56z"/>
	<path class="st10" d="M254.96,414.53c0.08-0.58,0.32-1.13,0.71-1.57c0.36-0.55,0.72-1.1,1.09-1.64c0.73-1.08,1.48-2.16,2.24-3.22
		c0.38-0.52-0.49-1-0.86-0.5c-0.81,1.13-1.61,2.28-2.39,3.43c-0.39,0.58-0.78,1.16-1.15,1.75c-0.38,0.51-0.61,1.12-0.64,1.75
		C253.96,415.17,254.96,415.18,254.96,414.53z"/>
	<path class="st10" d="M258.73,408c3.18,1.27,6.32,2.63,9.42,4.1c0.58,0.27,1.09-0.59,0.5-0.87c-3.17-1.49-6.4-2.89-9.66-4.19
		c-0.6-0.24-0.86,0.72-0.26,1V408z"/>
	<path class="st10" d="M247.52,417.43c0.66,0.13,1.28,0.46,1.76,0.93c0.59,0.5,1.15,1,1.79,1.47c1.41,1,2.93,1.89,4.4,2.82
		c0.54,0.35,1-0.52,0.5-0.86c-1.55-1-3.17-1.91-4.64-3c-1.22-0.91-2.2-2.17-3.81-2.36C246.88,416.36,246.89,417.36,247.52,417.43z"
		/>
	<path class="st10" d="M256.23,422.7c1.24-1.85,2.82-3.44,4.65-4.71c0.23-0.15,0.3-0.46,0.15-0.7c-0.14-0.24-0.44-0.32-0.68-0.18
		c-1.97,1.36-3.67,3.08-5,5.07c-0.16,0.22-0.11,0.54,0.11,0.7c0.22,0.16,0.54,0.11,0.7-0.11c0.02-0.03,0.04-0.06,0.05-0.09
		L256.23,422.7z"/>
	<path class="st10" d="M241.59,426.94c0.51-0.89,1.19-1.66,2-2.28c0.85-0.65,1.56-1.46,2.1-2.38c0.14-0.24,0.06-0.54-0.18-0.68
		c-0.23-0.14-0.53-0.06-0.67,0.17c0,0-0.01,0.01-0.01,0.01c-0.53,0.88-1.22,1.65-2.05,2.26c-0.85,0.65-1.55,1.47-2.07,2.4
		c-0.14,0.24-0.06,0.54,0.18,0.68c0.24,0.14,0.54,0.06,0.68-0.18H241.59z"/>
	<path class="st10" d="M245.23,422.29c3,1.29,5.91,2.79,8.69,4.5c0.55,0.33,1.05-0.53,0.51-0.87c-2.79-1.7-5.69-3.2-8.69-4.49
		C245.15,421.17,244.64,422.04,245.23,422.29z"/>
	<path class="st10" d="M234.94,429.55l3.49,3.28c1.03,1.07,2.17,2.05,3.38,2.91c0.54,0.35,1-0.52,0.5-0.86
		c-1.17-0.85-2.27-1.8-3.27-2.85l-3.39-3.19C235.18,428.4,234.47,429.11,234.94,429.55L234.94,429.55z"/>
	<path class="st10" d="M242.47,435.63l5.64-5.79c0.45-0.46-0.25-1.17-0.7-0.71l-5.65,5.79
		C241.31,435.38,242.02,436.09,242.47,435.63z"/>
	<path class="st10" d="M229.69,437.98c1.73-1.13,3.4-2.36,5-3.67c0.19-0.19,0.2-0.5,0.01-0.69c0,0,0,0-0.01-0.01
		c-0.2-0.19-0.51-0.19-0.71,0c-1.55,1.25-3.16,2.42-4.83,3.51c-0.54,0.35,0,1.21,0.5,0.86H229.69z"/>
	<path class="st10" d="M234.32,434.29c2.46,1.58,5,3.1,7.35,4.83c0.52,0.38,1-0.48,0.5-0.86c-2.36-1.73-4.88-3.25-7.34-4.84
		C234.28,433.07,233.83,433.94,234.32,434.29L234.32,434.29z"/>
	<path class="st10" d="M222.22,440.46c1.74,2.04,3.68,3.9,5.81,5.53c0.2,0.19,0.5,0.19,0.7,0c0.2-0.19,0.2-0.51,0-0.71c0,0,0,0,0,0
		c-2.1-1.64-4.03-3.49-5.75-5.53c-0.19-0.2-0.51-0.2-0.71,0c0,0,0,0,0,0c-0.19,0.2-0.19,0.51,0,0.71H222.22z"/>
	<path class="st10" d="M228.88,445.77c0.38-0.81,0.97-1.5,1.7-2l2.47-2.23c0.48-0.43-0.23-1.14-0.71-0.71l-2.6,2.35
		c-0.81,0.6-1.44,1.41-1.82,2.35c-0.07,0.28,0.09,0.56,0.36,0.64s0.56-0.09,0.64-0.36L228.88,445.77z"/>
	<path class="st10" d="M214.66,442.21l13.28,10c0.52,0.38,1-0.48,0.51-0.87l-13.29-9.94c-0.52-0.39-1,0.48-0.5,0.86L214.66,442.21z"
		/>
	<path class="st10" d="M223.31,454.76l15.62-9.74c0.54-0.34,0-1.21-0.51-0.87l-15.62,9.75C222.26,454.24,222.8,455.1,223.31,454.76z
		"/>
	<path class="st10" d="M166.9,420.38c-0.89,2.6-1.71,5.51-0.91,8.25c0.54,2.17,2.19,3.89,4.34,4.51c0.63,0.15,0.9-0.81,0.27-1
		c-1.92-0.58-3.37-2.18-3.74-4.15c-0.59-2.47,0.21-5.06,1-7.39c0.2-0.61-0.76-0.87-1-0.26L166.9,420.38z"/>
	<path class="st10" d="M171.56,413.29c1.98-1.08,4.1-1.88,6.3-2.37c2.22-0.46,4.53,0.03,6.36,1.37c3.42,2.43,6.7,6.39,5.84,10.87
		c-0.13,0.63,0.84,0.9,1,0.27c0.73-3.77-1.13-7.31-3.76-9.89c-1.29-1.35-2.81-2.44-4.5-3.22c-1.76-0.65-3.67-0.75-5.49-0.3
		c-2.17,0.54-4.26,1.35-6.22,2.41c-0.57,0.28-0.07,1.14,0.51,0.86H171.56z"/>
	<path class="st10" d="M175.85,450.13c0.16-0.54,0.85-0.77,1.31-1c0.62-0.28,1.19-0.67,1.67-1.16c1-1.03,1.52-2.43,1.44-3.86
		c0-0.64-1-0.65-1,0c0.08,1.32-0.46,2.59-1.46,3.45c-0.93,0.81-2.54,1-2.92,2.29c-0.07,0.28,0.09,0.56,0.37,0.63
		s0.56-0.09,0.63-0.37L175.85,450.13z"/>
	<path class="st10" d="M181.2,445.97c-0.07,0.91-0.22,1.81-0.45,2.69c-0.2,0.85-0.2,1.74,0,2.59c0.58,1.59,1.53,3.01,2.77,4.16
		c0.44,0.47,1.14-0.24,0.71-0.71c-1.16-1.05-2.03-2.37-2.55-3.85c-0.41-1.64,0.47-3.24,0.47-4.88c0-0.28-0.22-0.5-0.5-0.5
		s-0.5,0.22-0.5,0.5H181.2z"/>
	<path class="st10" d="M181.6,446.38c3.81,2.85,8.37,4.53,13.12,4.81c0.65,0,0.65-1,0-1c-4.57-0.29-8.96-1.91-12.62-4.67
		C181.59,445.13,181.1,446,181.6,446.38z"/>
	<path class="st10" d="M200.43,449.77c3.57,0.44,7.18-0.44,10.15-2.48c0.53-0.36,0-1.23-0.5-0.86c-2.82,1.94-6.26,2.77-9.65,2.34
		C199.79,448.69,199.8,449.69,200.43,449.77L200.43,449.77z"/>
	<circle class="st10" cx="215.42" cy="449.01" r="2.18"/>
	<path class="st10" d="M165.11,454.66c-1.45-0.26-2.55-1.45-2.69-2.92c-0.07-0.78-0.07-1.58,0-2.36c0.03-0.76,0.36-1.48,0.91-2
		c2.22-1.77,5.45-1.41,7.22,0.81c0.05,0.06,0.1,0.13,0.15,0.19c0.81,1.24,0.9,2.82,0.25,4.15c-0.3,0.57,0.57,1.08,0.87,0.51
		c0.72-1.46,0.72-3.18,0-4.64c-0.73-1.54-2.15-2.65-3.82-3c-1.72-0.38-3.53-0.05-5,0.93c-1.65,1.15-1.71,3.12-1.64,5
		c0,1.06,0.35,2.09,1,2.92c0.63,0.73,1.48,1.23,2.43,1.42c0.63,0.11,0.9-0.85,0.27-1L165.11,454.66z"/>
	<path class="st10" d="M169.32,439.13c-3-1.37-7.05-2.35-10.22-0.88c-3,1.39-4.48,4.61-5,7.69c-0.69,3.41-0.3,6.94,1.1,10.12
		c0.69,1.47,1.61,2.82,2.73,4c0.51,0.59,1.14,1.06,1.86,1.36c0.8,0.23,1.63,0.32,2.46,0.28c0.94,0.05,1.89-0.09,2.78-0.41
		c0.75-0.32,1.4-0.83,1.89-1.48c1.29-1.33,2.19-2.99,2.6-4.8c0.09-0.63-0.88-0.9-1-0.27c-0.3,1.42-0.97,2.74-1.94,3.83
		c-0.39,0.59-0.88,1.11-1.44,1.53c-0.64,0.37-1.36,0.56-2.09,0.55c-0.7,0.06-1.41,0.06-2.11,0c-0.85-0.1-1.64-0.51-2.2-1.15
		c-1.01-1.02-1.85-2.18-2.49-3.46c-1.32-2.71-1.8-5.75-1.38-8.73c0.34-2.86,1.32-6,3.82-7.65c2.93-2,7.13-1,10.11,0.37
		c0.59,0.26,1.1-0.6,0.51-0.87L169.32,439.13z"/>
	<path class="st10" d="M159.71,72.07c-2.73-2.22-4.62-6.17-3.88-9.74c0.41-2,3-2.32,4.68-2.44c1.95-0.13,3.91,0.13,5.76,0.75
		c3.67,1.2,6.96,3.34,9.55,6.2c2.54,2.59,4.03,6.03,4.18,9.66c0,4.55-2.82,8.44-5.38,12c-0.38,0.53,0.49,1,0.87,0.51
		c2.52-3.47,5.15-7.2,5.48-11.62c0.29-4-1.47-7.74-4-10.7c-2.7-3.16-6.21-5.53-10.14-6.88c-2.03-0.71-4.18-1.01-6.33-0.88
		c-1.74,0.13-4.09,0.48-5.16,2c-0.54,0.99-0.76,2.14-0.62,3.26c0.13,3.35,1.69,6.48,4.27,8.61c0.5,0.4,1.21-0.3,0.71-0.71
		L159.71,72.07z"/>
	<path class="st10" d="M168.92,96.59c0,1.17,0,2.33,0,3.5c0,0.58,0,1.16,0,1.74c0.04,0.55-0.07,1.11-0.33,1.6
		c-0.66,0.7-1.55,1.13-2.51,1.21c-0.86,0.18-1.75,0.21-2.62,0.1c-1.79-0.18-3.39-1.21-4.31-2.76c-1.01-1.86-1.39-4-1.07-6.1
		c0.24-2.16,1.74-3.97,3.82-4.6c0.63-0.15,0.36-1.12-0.26-1c-4.91,1.21-5.44,7.45-3.76,11.36c0.83,1.98,2.56,3.44,4.66,3.91
		c2.03,0.5,4.17,0.22,6-0.79c1.19-0.75,1.36-1.91,1.38-3.22c0-1.66,0-3.33,0-5c0-0.28-0.22-0.5-0.5-0.5s-0.5,0.22-0.5,0.5V96.59z"/>
	<path class="st10" d="M162.79,94.96c-0.68,1.06-0.84,2.37-0.46,3.57c0.07,0.28,0.36,0.44,0.63,0.36c0.28-0.07,0.44-0.36,0.37-0.63
		c-0.32-0.94-0.18-1.96,0.36-2.79c0.15-0.23,0.07-0.54-0.16-0.69c-0.23-0.15-0.54-0.07-0.69,0.16c0,0.01-0.01,0.01-0.01,0.02H162.79
		z"/>
	<path class="st10" d="M169.14,93.57c3.61,0.69,5.52,4.16,6.08,7.52c0.38,1.95,0.4,3.94,0.08,5.9c-0.43,1.75-1.41,3.32-2.79,4.48
		c-2.58,2.35-6.47,4.14-9.89,2.5c-1.5-0.87-2.69-2.19-3.39-3.78c-0.79-1.47-1.75-2.85-2.85-4.11c-2.49-2.77-5.73-4.75-9.32-5.72
		c-0.28-0.07-0.56,0.09-0.63,0.37c-0.07,0.28,0.09,0.56,0.36,0.63l0,0c3.55,0.97,6.73,2.97,9.14,5.75c1.13,1.48,2.13,3.04,3,4.68
		c0.88,1.58,2.3,2.79,4,3.42c3.66,1.27,7.49-0.49,10.21-2.93c1.39-1.17,2.43-2.7,3-4.43c0.46-2.03,0.52-4.14,0.17-6.19
		c-0.49-3.94-2.63-8.2-6.9-9c-0.63-0.12-0.9,0.84-0.26,1L169.14,93.57z"/>
	<path class="st10" d="M144.44,126.6c0.69-0.72,1.25-1.55,1.66-2.46c0.15-0.23,0.07-0.54-0.16-0.69c-0.23-0.15-0.54-0.07-0.69,0.16
		c0,0.01-0.01,0.01-0.01,0.02c-0.19,0.43-0.41,0.85-0.68,1.24l-0.19,0.28l-0.1,0.13l0,0l-0.06,0.08c-0.15,0.18-0.31,0.36-0.48,0.53
		c-0.2,0.2-0.2,0.51,0,0.71S144.24,126.8,144.44,126.6L144.44,126.6z"/>
	<path class="st10" d="M138.32,109.89c2.22,2.79,3.94,6.66,2.22,10.14c-0.28,0.57,0.58,1.08,0.86,0.5
		c1.94-3.93,0.16-8.17-2.37-11.34C138.63,108.68,137.92,109.39,138.32,109.89L138.32,109.89z"/>
	<path class="st10" d="M135.32,113.71c-3.55-0.83-7.2,0.92-8.77,4.22c-0.81,1.66-1.19,3.5-1.08,5.35c0.18,1.96,1.04,3.8,2.42,5.21
		c1.41,1.59,3.14,2.87,5.08,3.74c0.58,0.27,1.09-0.59,0.5-0.86c-1.92-0.86-3.63-2.14-5-3.74c-0.76-0.82-1.35-1.78-1.73-2.83
		c-0.31-1.1-0.37-2.26-0.2-3.39c0.22-2.09,1.21-4.03,2.79-5.42c1.58-1.34,3.72-1.83,5.73-1.31c0.28,0.07,0.56-0.09,0.63-0.37
		c0.07-0.28-0.09-0.56-0.36-0.63L135.32,113.71z"/>
	<path class="st10" d="M145.85,105.78c0.64,1.57,1.44,3.07,2.37,4.48c0.92,1.66,1.41,3.53,1.41,5.43c0.07,2,0.15,4.06,0.17,6.08
		c0.06,1-0.1,2-0.48,2.92c-0.38,0.77-0.89,1.47-1.5,2.07c-1.56,1.59-3.21,3.1-4.93,4.52c-0.49,0.42,0.22,1.13,0.71,0.71
		c1.6-1.36,3.18-2.75,4.65-4.24c1.34-1.19,2.22-2.82,2.49-4.59c0.12-2.09,0.09-4.19-0.07-6.28c0.08-2-0.24-3.99-0.94-5.87
		c-0.85-1.9-2.24-3.51-2.91-5.5c-0.21-0.6-1.18-0.34-1,0.27H145.85z"/>
	<path class="st10" d="M128.42,96.61c1.67,1.5,3.24,3.1,4.7,4.8c0.21,0.18,0.52,0.16,0.71-0.05c0.16-0.19,0.16-0.46,0-0.65
		c-1.46-1.7-3.03-3.31-4.7-4.8C128.65,95.48,127.94,96.18,128.42,96.61z"/>
	<path class="st10" d="M122.84,75.29c1.2-0.94,2.56-1.67,4-2.17c1.36-0.46,3-0.65,4.15,0.42c0.46,0.44,1.17-0.27,0.7-0.71
		c-1.35-1.11-3.19-1.41-4.82-0.77c-1.72,0.54-3.32,1.4-4.73,2.52C121.63,74.97,122.34,75.67,122.84,75.29z"/>
	<path class="st10" d="M121.55,71.17c2.82-2.92,7.43-3.14,10.51-0.5c0.48,0.42,1.19-0.28,0.7-0.7c-3.47-3.02-8.7-2.81-11.91,0.49
		C120.4,70.92,121.11,71.63,121.55,71.17L121.55,71.17z"/>
	<path class="st10" d="M110.65,81.73c1.52,0.07,3-0.24,4.54-0.13c1.2,0.01,2.34,0.54,3.12,1.45c0.37,0.52,1.24,0,0.86-0.5
		c-0.85-1.09-2.11-1.78-3.49-1.9c-1.68-0.22-3.35,0.15-5,0.08c-0.28,0-0.5,0.22-0.5,0.5s0.22,0.5,0.5,0.5H110.65z"/>
	<path class="st10" d="M106.79,91.05c1.17,1.66,2.46,3.22,3.86,4.69c1.23,1.36,2.67,2.52,4.26,3.42c1.51,0.87,3.29,1.16,5,0.81
		c1.7-0.58,3.19-1.65,4.29-3.06c1.39-1.38,2.08-3.3,1.89-5.25c-0.09-0.63-1.06-0.36-1,0.27c0.32,2.07-1.15,3.91-2.57,5.23
		c-0.74,0.77-1.63,1.37-2.62,1.76c-0.98,0.3-2.02,0.3-3,0c-1.92-0.64-3.64-1.76-5-3.26c-1.59-1.57-3.03-3.28-4.31-5.11
		c-0.37-0.52-1.24,0-0.87,0.51L106.79,91.05z"/>
	<path class="st10" d="M163.43,76.86c-0.26,1.92-0.79,3.8-1.59,5.57c-0.5,1.54-1.27,2.97-2.27,4.24c-2.33,2.59-6.53,2.37-9.67,1.85
		c-3.26-0.43-6.3-1.91-8.64-4.22c-2.24-2.52-3.72-5.62-4.26-8.95c-0.39-2.16-0.6-4.35-0.62-6.55c0-1.13,0-2.25,0-3.38
		c-0.05-1.08,0.04-2.17,0.29-3.23c0.07-0.28-0.09-0.56-0.37-0.63c-0.28-0.07-0.56,0.09-0.63,0.36c-0.39,2.03-0.5,4.1-0.31,6.15
		c0.02,2.13,0.17,4.26,0.47,6.37c0.45,3.61,1.87,7.04,4.12,9.9c2.38,2.7,5.63,4.49,9.18,5.06c1.78,0.34,3.6,0.46,5.41,0.36
		c1.75-0.02,3.46-0.57,4.89-1.59c1.45-1.31,2.52-2.98,3.12-4.84c0.95-2.05,1.58-4.23,1.88-6.47
		C164.49,76.22,163.49,76.22,163.43,76.86L163.43,76.86z"/>
	<path class="st10" d="M137.03,62.09c0.09-3.46,1.31-6.81,3.46-9.52c2.11-2.76,4.52-5.28,7.19-7.5c1.38-1.12,2.91-2.04,4.54-2.73
		c1.66-0.76,3.31-1.51,5-2.21c3.37-1.5,6.93-2.51,10.59-3c4.18-0.35,8.4-0.05,12.49,0.88c0.62,0.13,0.89-0.83,0.26-1
		c-3.83-0.86-7.75-1.2-11.67-1c-3.81,0.34-7.55,1.28-11.08,2.77c-1.7,0.68-3.37,1.43-5,2.19c-1.77,0.71-3.45,1.63-5,2.73
		c-1.36,1.1-2.65,2.28-3.86,3.53c-1.35,1.3-2.62,2.7-3.78,4.17c-2.55,2.99-4.01,6.76-4.14,10.69c0,0.28,0.22,0.5,0.5,0.5
		S137.03,62.37,137.03,62.09z"/>
	<path class="st10" d="M180.88,37.86c2.32-0.11,4.45,0.87,6.53,1.78s4,1.79,6,2.75c3.99,1.87,7.83,4.06,11.48,6.54
		c3.93,2.73,7.6,5.84,11.34,8.81c3.69,2.72,7.22,5.65,10.57,8.78c3.12,3.15,5.46,7.5,9.82,9.13c0.61,0.22,0.87-0.75,0.27-1
		c-3.93-1.46-6.16-5.48-8.91-8.38c-3.16-3.32-7-6-10.56-8.88s-7.33-6-11.16-8.74c-3.64-2.57-7.5-4.83-11.53-6.75
		c-2.25-1.11-4.55-2.15-6.85-3.16s-4.53-2-7-1.91c-0.64,0-0.64,1,0,1L180.88,37.86z"/>
	<path class="st10" d="M235.78,74.98c2.34,1.97,4.54,4.11,6.57,6.4c2.06,2.39,4,4.87,6,7.3c4,4.9,8,9.78,11.94,14.76
		c2.23,2.84,4.41,5.7,6.54,8.61c0.37,0.52,1.24,0,0.86-0.5c-3.75-5.14-7.69-10.14-11.7-15.08s-8-9.91-12.11-14.8
		c-2.27-2.66-4.74-5.13-7.41-7.39c-0.48-0.42-1.19,0.28-0.71,0.7H235.78z"/>
	<path class="st10" d="M266.97,112.2l4.32,9.29c0.66,1.49,1.4,2.95,2.21,4.36c0.83,1.38,1.84,2.64,2.58,4.08
		c1.45,2.81,2.25,6,3.35,8.92c0.56,1.5,1.16,3,1.84,4.43c0.74,1.39,1.39,2.83,1.94,4.31c0.46,1.76,0.83,3.53,1.1,5.33l1.09,5.8
		c0.12,0.63,1.09,0.37,1-0.26c-0.63-3.34-1.16-6.72-1.91-10c-0.39-1.53-0.97-3-1.72-4.39c-0.75-1.49-1.41-3-2-4.58
		c-1.13-2.91-2-5.94-3.21-8.81c-0.67-1.45-1.48-2.84-2.41-4.14c-0.9-1.38-1.71-2.83-2.4-4.33c-1.64-3.49-3.25-7-4.88-10.48
		c-0.27-0.58-1.13-0.08-0.86,0.5L266.97,112.2z"/>
	<path class="st10" d="M285.72,158.52c-0.3,3.76,1.08,7.33,2.16,10.86c0.59,1.87,1.01,3.79,1.24,5.74c0.23,1.95,0.4,3.9,0.78,5.83
		c0.88,3.83,1.95,7.62,3.21,11.34c1.21,3.85,2.02,7.8,2.44,11.81c0.45,4.72,0.7,9.47,1,14.2c0.05,0.64,1.05,0.65,1,0
		c-0.57-8.17-0.68-16.48-2.95-24.41c-1.09-3.79-2.43-7.5-3.35-11.33c-0.46-1.95-0.8-3.93-1-5.93c-0.16-1.93-0.47-3.85-0.92-5.74
		c-1.08-4.09-3-8.08-2.65-12.4c0-0.65-1-0.64-1,0L285.72,158.52z"/>
	<path class="st10" d="M296.77,221.65c0.27,12.48,0.53,24.96,0.79,37.43c-0.09,3.25,0.33,6.48,1.25,9.6c0.21,0.61,1.18,0.35,1-0.26
		c-0.84-2.77-1.25-5.65-1.2-8.54c-0.08-3.08-0.13-6.16-0.2-9.25l-0.39-18.6l-0.22-10.38c0-0.28-0.22-0.5-0.5-0.5s-0.5,0.22-0.5,0.5
		L296.77,221.65z"/>
	<path class="st10" d="M298.78,267.47c-1,9.38-2.39,18.71-4.17,28c-0.51,2.65-1.06,5.29-1.63,7.93c-0.13,0.63,0.83,0.89,1,0.26
		c2-9.33,3.63-18.71,4.88-28.13c0.35-2.68,0.67-5.35,1-8c0.07-0.63-0.93-0.63-1,0L298.78,267.47z"/>
	<path class="st10" d="M292.95,303.55c-0.41,11.64-3.64,22.89-6.82,34l-1.35,4.74c-0.38,1.6-0.94,3.15-1.66,4.63
		c-0.31,0.57,0.55,1.07,0.86,0.51c0.63-1.22,1.12-2.51,1.47-3.84c0.41-1.45,0.83-2.89,1.24-4.34c0.82-2.87,1.65-5.74,2.44-8.61
		c1.63-5.64,2.93-11.37,3.9-17.16c0.53-3.29,0.86-6.6,1-9.93c0-0.64-1-0.64-1,0H292.95z"/>
	<path class="st10" d="M282.9,346.78c-4.08,9.64-8.1,19.32-12.4,28.87c-1.21,2.67-2.45,5.33-3.7,8c-0.27,0.58,0.59,1.09,0.87,0.51
		c4.48-9.41,8.55-19,12.61-28.61l3.49-8.23c0.24-0.59-0.62-1.1-0.87-0.51L282.9,346.78z"/>
	<path class="st10" d="M267.46,382.42c-3.58,6.55-7.16,13.11-11.18,19.4c-3.95,6.33-8.54,12.23-13.72,17.6
		c-2.9,2.93-6.06,5.88-10,7.21c-0.61,0.21-0.35,1.17,0.27,1c3.41-1.31,6.48-3.36,9-6c2.73-2.64,5.29-5.46,7.66-8.43
		c4.68-6,8.89-12.36,12.61-19c2.14-3.72,4.2-7.49,6.26-11.27c0.31-0.56-0.55-1.07-0.86-0.5L267.46,382.42z"/>
	<path class="st10" d="M232.56,426.48c-3.25,4.23-6.93,8.1-11,11.54c-6.48,5.3-14.42,8.49-22.76,9.16c-0.64,0.05-0.65,1.05,0,1
		c5.36-0.43,10.59-1.86,15.42-4.24c4.86-2.48,9.26-5.78,13-9.76c2.14-2.22,4.13-4.59,6.06-7c0.4-0.5-0.3-1.21-0.71-0.71
		L232.56,426.48z"/>
	<path class="st10" d="M178.31,430.09c-1.3,1.8-1.95,3.98-1.85,6.2c-0.15,1.16-0.04,2.33,0.32,3.44c0.58,0.99,1.35,1.85,2.25,2.56
		c1.67,1.74,3.73,3.07,6,3.88c2.27,0.61,4.6,0.9,6.95,0.87c2.76-0.07,5.52,0.28,8.17,1.06c0.61,0.21,0.87-0.75,0.26-1
		c-4.21-1.49-8.71-0.72-13.05-1.44c-2.2-0.34-4.28-1.27-6-2.68c-0.88-0.72-1.7-1.52-2.51-2.32c-0.4-0.37-0.73-0.8-1-1.27
		c-0.24-0.56-0.34-1.17-0.3-1.78c0-2.32,0-5,1.56-6.88c0.41-0.49-0.29-1.2-0.7-0.71L178.31,430.09z"/>
	<path class="st10" d="M119.9,77.66c-0.34-3.26-0.72-6.52-1-9.78c-0.27-3-0.28-6.29,1.66-8.76c0.4-0.5-0.31-1.21-0.7-0.7
		c-2,2.49-2.24,5.68-2,8.74c0.26,3.51,0.71,7,1.07,10.5c0.07,0.64,1.07,0.64,1,0L119.9,77.66z"/>
	<path class="st10" d="M120.61,46.36c1.37,1.09,2.21,2.72,2.3,4.47c0.08,1.73-0.23,3.46-0.9,5.06c0.48-1.25,1.21-2.38,2.15-3.33
		c0.99-0.95,2.46-1.18,3.69-0.59c-0.33-0.95-0.65-2.06-0.08-2.88c0.35-0.45,0.81-0.79,1.34-1l4.08-1.93"/>
	<path class="st10" d="M120.03,46.51c1.85,0.95,3.93,1.35,6,1.15c2.22-0.23,4.43-1.41,6.68-0.94c0.63,0.13,0.9-0.84,0.27-1
		c-2.14-0.44-4.14,0.4-6.21,0.8c-2.11,0.38-4.29,0.07-6.2-0.9c-0.57-0.29-1.08,0.58-0.5,0.86L120.03,46.51z"/>
	<path class="st10" d="M113.95,53.75c-1.15-0.69-2.23-1.47-3.24-2.35c-0.5-0.34-0.76-0.94-0.66-1.54c0.12-0.55,0.35-1.06,0.68-1.51
		c0.6-0.84,1.43-1.47,2.4-1.83c0.88-0.32,2.3-0.59,3.06,0.13c0.47,0.44,1.18-0.26,0.71-0.71c-1.1-0.8-2.54-0.98-3.8-0.46
		c-1.27,0.4-2.37,1.19-3.16,2.26c-0.8,1.11-1.37,2.73-0.39,3.91c0.54,0.59,1.16,1.11,1.82,1.56c0.67,0.51,1.36,0.97,2.08,1.4
		c0.25,0.11,0.55,0,0.66-0.25C114.21,54.14,114.14,53.89,113.95,53.75L113.95,53.75z"/>
	<path class="st10" d="M122.84,45.29h1.51c0.28,0,0.5-0.22,0.5-0.5s-0.22-0.5-0.5-0.5h-1.51c-0.28,0-0.5,0.22-0.5,0.5
		S122.56,45.29,122.84,45.29z"/>
	<path class="st10" d="M108.17,55.61c-1.5-5.4-3.09-11.91,1-16.64c3.55-4.13,9.64-4.93,14.14-1.87c2.14,1.47,4.1,4.11,7,3.76
		c0.63-0.08,0.63-1.08,0-1c-2.78,0.34-4.73-2.51-6.84-3.85c-2.34-1.46-5.12-2.06-7.86-1.68c-2.66,0.38-5.1,1.67-6.91,3.66
		c-1.84,2.05-2.93,4.66-3.09,7.41c-0.27,3.56,0.69,7.09,1.63,10.48c0.07,0.28,0.36,0.44,0.63,0.36c0.28-0.07,0.44-0.36,0.37-0.63
		L108.17,55.61z"/>
	<path class="st10" d="M131.72,37.29c-5.24-3.72-8-11.25-4.94-17.2c0.66-1.32,1.63-2.45,2.83-3.31c1.59-1,3.43-1.51,5.31-1.46
		c3.35,0,7,0.91,9.36,3.44c1.41,1.42,2.09,3.41,1.85,5.4c-0.29,1.83-1.7,3.29-3.52,3.64c-0.63,0.08-0.63,1.08,0,1
		c1.7-0.24,3.18-1.3,3.95-2.84c0.81-1.69,0.84-3.65,0.07-5.36c-1.5-3.63-5.32-5.55-9-6.08c-3.86-0.56-7.95,0.06-10.5,3.25
		c-2.11,2.77-3,6.29-2.45,9.73c0.65,4.29,3.02,8.14,6.56,10.65c0.52,0.38,1-0.49,0.5-0.86L131.72,37.29z"/>
	<path class="st10" d="M139.15,20.65c-2.15,0.22-3.52,2.16-4,4.14c-0.53,2.2,0.06,4.53,1.59,6.2c1.49,1.56,3.7,2.19,5.79,1.67
		c2.27-0.59,4.28-2.31,5.92-3.92c0.94-0.87,1.63-1.97,2-3.2c0.27-1.45,0.27-2.93,0-4.38c-0.08-0.63-1.08-0.64-1,0
		c0.26,2.1,0.44,4.23-0.94,6c-0.64,0.76-1.35,1.45-2.12,2.07c-0.76,0.67-1.59,1.27-2.47,1.78c-1.62,1.04-3.68,1.11-5.37,0.18
		c-1.64-1-2.64-2.8-2.62-4.72c0-1.88,1-4.59,3.15-4.81c0.63-0.07,0.64-1.07,0-1L139.15,20.65z"/>
	<path class="st10" d="M156.4,25.8c0.54,1.36,1.09,2.71,1.64,4.06s1,2.61,0.51,3.93c-0.23,0.6,0.74,0.86,1,0.26
		c0.39-1.4,0.25-2.89-0.41-4.18c-0.57-1.45-1.16-2.89-1.75-4.33C157.15,24.95,156.19,25.2,156.4,25.8L156.4,25.8z"/>
	<path class="st10" d="M160.25,24.29c1.96,2.1,2.88,4.97,2.5,7.82c0,0.27,0.25,0.5,0.5,0.5c0.27-0.01,0.49-0.23,0.5-0.5
		c0.39-3.11-0.64-6.24-2.79-8.52C160.51,23.12,159.81,23.83,160.25,24.29z"/>
	<path class="st10" d="M166.23,28.29l0.47,0.59c0.04,0.05,0.1,0.08,0.16,0.1c0.12,0.07,0.26,0.07,0.38,0
		c0.06-0.02,0.12-0.05,0.16-0.1c0.1-0.09,0.15-0.22,0.15-0.35v-0.14c-0.02-0.08-0.07-0.16-0.13-0.22l-0.47-0.59
		c-0.04-0.05-0.1-0.09-0.16-0.1c-0.12-0.05-0.26-0.05-0.38,0c-0.06,0.02-0.12,0.05-0.16,0.1c-0.1,0.09-0.15,0.22-0.15,0.36v0.13
		C166.12,28.15,166.17,28.23,166.23,28.29z"/>
	<path class="st10" d="M152.27,21.23c1.42,0.01,2.83-0.17,4.2-0.51c1.35-0.4,2.67-0.88,3.95-1.46c2-0.82,5.13-1.6,6.57,0.66
		c0.34,0.54,1.21,0,0.86-0.5c-1.39-2.18-4.23-2.29-6.47-1.58c-1.43,0.46-2.76,1.17-4.19,1.63c-1.59,0.51-3.25,0.77-4.92,0.76
		c-0.28,0-0.5,0.22-0.5,0.5S151.99,21.23,152.27,21.23z"/>
	<path class="st10" d="M176.63,16.39c-0.3-0.43-0.47-0.94-0.49-1.46c-0.08-0.53-0.03-1.07,0.14-1.58c0.41-0.94,1.78-1.44,2.71-1.62
		c2.01-0.43,4.02,0.77,4.58,2.75c0.15,0.63,1.11,0.36,1-0.27c-0.75-2.61-3.47-4.12-6.08-3.38c-1.23,0.3-2.73,1-3.17,2.33
		c-0.41,1.34-0.17,2.8,0.65,3.94c0.39,0.51,1.09-0.2,0.7-0.71L176.63,16.39z"/>
	<path class="st10" d="M176.32,18.67c-2.02-0.91-3.38-2.87-3.52-5.08c-0.13-2.49,1.49-4.6,2.73-6.63c0.34-0.55-0.52-1-0.86-0.5
		c-1.43,2.32-3.16,4.69-2.83,7.56c0.29,2.41,1.8,4.5,4,5.52c0.58,0.27,1.09-0.6,0.5-0.87H176.32z"/>
	<path class="st10" d="M176.95,6.21c2.43-0.7,4.95-1.01,7.47-0.92c2.24,0.23,4.35,1.13,6.06,2.6c1.66,1.37,3.05,3.03,4.1,4.91
		c0.61,1.03,0.97,2.19,1.05,3.38c-0.06,1.18-0.3,2.35-0.71,3.46c-0.59,2.37-0.23,4.89,1,7c0.16,0.22,0.48,0.27,0.7,0.11
		c0.19-0.14,0.26-0.39,0.16-0.61c-1.23-2.16-1.48-4.75-0.67-7.11c0.39-1.11,0.54-2.3,0.44-3.48c-0.17-1.15-0.56-2.25-1.14-3.25
		c-2.05-3.74-5.75-7.22-10.08-7.9c-2.91-0.46-5.84,0.19-8.67,0.84c-0.63,0.15-0.36,1.11,0.26,1L176.95,6.21z"/>
	<path class="st10" d="M225.94,59.01c1.46,0.08,2.88-0.51,3.84-1.62c0.95-1.14,1.31-2.65,1-4.09c-0.14-0.63-1.11-0.36-1,0.26
		c0.24,1.13-0.05,2.3-0.79,3.18c-0.77,0.88-1.91,1.35-3.08,1.27c-0.65-0.05-0.64,0.95,0,1H225.94z"/>
	<path class="st10" d="M227.6,62.05c1.72,0.19,3.72-0.12,4.85-1.56s1-3.48,0.82-5.24c-0.01-0.27-0.23-0.49-0.5-0.5
		c-0.28,0-0.5,0.22-0.5,0.5c0.18,1.47,0.41,3.29-0.54,4.56s-2.7,1.4-4.13,1.24c-0.27,0.01-0.49,0.23-0.5,0.5
		C227.1,61.83,227.32,62.05,227.6,62.05z"/>
	<path class="st10" d="M218.68,20.07c-3.73-0.18-7.68,0.2-11,2.16c-2.88,1.65-4.82,4.56-5.23,7.86c-0.18,2.18,0.78,4.16,1.08,6.28
		c0.09,0.63,1.06,0.36,1-0.27c-0.32-2.2-1.36-4.25-1-6.51c0.37-1.96,1.36-3.74,2.82-5.09c3.25-3.1,8-3.64,12.3-3.43
		c0.64,0,0.64-1,0-1L218.68,20.07z"/>
	<path class="st10" d="M224.32,23.17c2.53,3.8,5.07,7.94,5.15,12.65c0.03,1.12-0.11,2.25-0.41,3.33c-0.31,1.08-0.72,2.18-1.91,2.48
		c-2.18,0.44-4.44-0.11-6.17-1.51c-0.5-0.39-1.21,0.31-0.7,0.71c1.43,1.15,3.17,1.82,5,1.93c0.91,0.09,1.83-0.04,2.68-0.36
		c0.77-0.38,1.36-1.04,1.65-1.85c1.59-3.74,0.78-8-0.82-11.64c-1.03-2.18-2.23-4.26-3.61-6.24
		C224.82,22.13,223.96,22.67,224.32,23.17L224.32,23.17z"/>
	<path class="st10" d="M224.96,40.29c1.15-2.26,1.62-5.06,0.4-7.39c-1.02-2.13-3.31-3.35-5.64-3c-2.59,0.52-4.16,2.92-5,5.25
		c-0.89,2.64-1.31,5.39,0.19,7.9s4.36,4,7.22,4.7c0.62,0.15,0.89-0.81,0.26-1c-2.25-0.44-4.31-1.57-5.89-3.23
		c-0.72-0.83-1.24-1.82-1.49-2.89c-0.22-1.19-0.15-2.41,0.2-3.56c0.52-2.16,1.34-4.51,3.35-5.71c1.82-1.06,4.15-0.56,5.38,1.16
		c1.63,2.07,1.23,5,0.11,7.18c-0.3,0.57,0.57,1.08,0.86,0.51L224.96,40.29z"/>
</g>
<g id="Layer_6">
	<path class="st6" d="M151.4,445.03v3.77c0,0-118.73-2.72-123.52,28.64c0,0,103.67,44.87,201.68,18.73c0,0,41.19-4,47-24.68
		c0,0-22.58-19.77-52.84-13.44l13.91-6.62c0,0,108.72,14.68,30.75,53c0,0-69.7,19.16-142.88,14.81c0,0-87.17-5.91-110.45-25
		c0,0-17.61-20.35,10.27-32.55C25.26,461.76,86.32,436.58,151.4,445.03z"/>
</g>
</svg>
